<?xml version="1.0" encoding="UTF-8"?>
<svg id="svg24" width="204" height="230" version="1.1" viewBox="0 0 204 230" xmlns="http://www.w3.org/2000/svg" xmlns:cc="http://creativecommons.org/ns#" xmlns:dc="http://purl.org/dc/elements/1.1/" xmlns:rdf="http://www.w3.org/1999/02/22-rdf-syntax-ns#" xmlns:xlink="http://www.w3.org/1999/xlink">
 <metadata id="metadata30">
  <rdf:RDF>
   <cc:Work rdf:about="">
    <dc:format>image/svg+xml</dc:format>
    <dc:type rdf:resource="http://purl.org/dc/dcmitype/StillImage"/>
    <dc:title/>
   </cc:Work>
  </rdf:RDF>
 </metadata>
 <defs id="defs28">
  <linearGradient id="linearGradient878" x1="85.899" x2="-15.25" y1="85.899" y2="-15.416" gradientTransform="matrix(3.1236 0 0 3.1236 -255.94 188.64)" gradientUnits="userSpaceOnUse">
   <stop id="stop872" stop-color="#0087b6" offset="0"/>
   <stop id="stop874" stop-color="#6a87df" stop-opacity="0" offset="1"/>
  </linearGradient>
 </defs>
 <linearGradient id="a" x1="39.023" x2="39.023" y1="-32.506" y2="-31.498" gradientTransform="matrix(156.87 0 0 -95.25 -5945.2 -2892.3)" gradientUnits="userSpaceOnUse">
  <stop id="stop4" stop-color="#CBCBCB" offset="0"/>
  <stop id="stop6" stop-color="#D8D8D8" offset=".75"/>
  <stop id="stop8" stop-color="#E1E1E1" offset="1"/>
 </linearGradient>
 <linearGradient id="b" x1="578" x2="578" y1="844.99" y2="821.94" gradientTransform="matrix(5.7504 0 0 5.7504 -3242.2 -4585.9)" gradientUnits="userSpaceOnUse">
  <stop id="stop13" stop-color="#CBCBCB" offset="0"/>
  <stop id="stop15" stop-color="#D8D8D8" offset=".485"/>
  <stop id="stop17" stop-color="#E1E1E1" offset="1"/>
 </linearGradient>
 <path id="path880" d="m22.468 368.27c0.11711 199.88-0.11712 199.65 199.77 199.77-0.1172-199.88 0.11721-199.65-199.77-199.77z" fill="#9be5ff" fill-rule="evenodd" stroke="#fff" stroke-width=".23283"/>
 <path id="path2" d="m154.66 94.169c-2.5129 2.5187-6.59 2.5187-9.1086 0-2.5187-2.5187-2.5187-6.5957 0-9.1202l14.894-14.894c2.5302-2.5187 6.613-2.5187 9.1201 0 2.5302 2.5187 2.5302 6.5957 0 9.1144l-14.894 14.905zm-50.144 87.349c-25.532 0-46.291-20.782-46.291-46.302 0-25.52 20.759-46.291 46.291-46.291 25.515 0 46.291 20.77 46.291 46.291 0 25.52-20.77 46.291-46.291 46.291zm-50.167-87.36-14.905-14.894c-2.5187-2.5302-2.5187-6.6015 0-9.1202 2.5187-2.5187 6.6015-2.5187 9.1201 0l14.905 14.894c2.5187 2.5187 2.5187 6.5957 0 9.1202-2.5129 2.5187-6.6015 2.5187-9.1144 0zm0 82.093c2.5302-2.5302 6.613-2.5187 9.1259 0 2.5129 2.5187 2.5187 6.59 0 9.1087l-14.894 14.911c-2.5302 2.5187-6.613 2.5187-9.1201 0-2.5187-2.5187-2.5187-6.59 0-9.1259l14.894-14.894zm100.31-0.0115 14.905 14.905c2.5302 2.5187 2.5302 6.59 0 9.1086-2.5129 2.5187-6.59 2.5187-9.1144 0l-14.894-14.894c-2.5302-2.5187-2.5302-6.6015 0-9.1202 2.5187-2.5187 6.59-2.5187 9.1086 0zm-44.853-105.51c0 3.5653-2.2254 6.4405-5.7849 6.4405-3.5652 0-5.7792-2.8752-5.7792-6.4405v-21.07c0-3.5653 2.2254-6.452 5.7792-6.452s5.7849 2.8867 5.7849 6.452zm-69.775 69.775h-21.081c-3.5538 0-6.4405-2.2312-6.4405-5.7849 0-3.5768 2.8867-5.7849 6.4405-5.7849h21.081c3.5653 0 6.4405 2.2082 6.4405 5.7849 0 3.5538-2.8752 5.7792-6.4405 5.7792zm58.194 59.195c0-3.5653 2.2312-6.4577 5.7849-6.4405 3.5652 0 5.7849 2.8752 5.7849 6.4405v21.075c0 3.5423-2.2254 6.4405-5.7849 6.4405-3.5652 0-5.7792-2.8982-5.7792-6.4405v-21.081zm70.776-70.765h21.064c3.5652 0 6.4577 2.2082 6.4577 5.7849 0 3.5538-2.8867 5.7792-6.4577 5.7792h-21.064c-3.5652 0-6.452-2.2427-6.452-5.7849 0-3.5768 2.8752-5.7849 6.452-5.7849z" fill="#d8d8d8" stroke-width="5.7504"/>
 <path id="path11" d="m222 124.85c-3.5998 0-7.0385 0.58654-10.282 1.6331-8.7579-11.156-22.312-18.344-37.562-18.344-14.514 0-27.516 6.521-36.285 16.774-0.40253-0.0173-0.7878-0.0575-1.1961-0.0575-21.823 0-39.505 16.791-39.505 37.539 0 20.742 17.683 37.55 39.505 37.55 4.7441 0 9.2812-0.83381 13.496-2.2829 7.05 4.1288 15.221 6.521 23.979 6.521 13.743 0 26.107-5.8654 34.859-15.181 3.985 1.7136 8.3783 2.6567 12.996 2.6567 18.413 0 33.295-14.951 33.295-33.398-0.0172-18.47-14.911-33.41-33.306-33.41z" fill="url(#a)" stroke-width="5.7504"/>
 <path id="path860" d="m-255.62 188.96c0.15712 268.16-0.15712 267.85 268 268-0.15723-268.16 0.15725-267.85-268-268z" fill="url(#linearGradient878)" fill-rule="evenodd" stroke="#736eff" stroke-width=".31236"/>
 <path id="path20" d="m144.77 163.69c-4.9626 0-9.7182 0.80506-14.204 2.2657-12.11-15.4-30.845-25.313-51.926-25.313-20.069 0-38.01 8.9936-50.132 23.128-0.55779-0.0115-1.0926-0.0805-1.6561-0.0805-30.155 0-54.594 23.209-54.594 51.828 0 28.637 24.439 51.834 54.594 51.834 6.5555 0 12.812-1.1616 18.631-3.18 9.7642 5.6929 21.064 8.9936 33.157 8.9936 19.017 0 36.084-8.0736 48.154-20.931 5.5204 2.3289 11.599 3.6458 17.976 3.6458 25.417 0 46.003-20.644 46.003-46.118 0-25.44-20.586-46.072-46.003-46.072z" fill="url(#b)" stroke-width="5.7504"/>
 <path id="path22" d="m154.66 94.169c-2.5129 2.5187-6.59 2.5187-9.1086 0-2.5187-2.5187-2.5187-6.5957 0-9.1202l14.894-14.894c2.5302-2.5187 6.613-2.5187 9.1201 0 2.5302 2.5187 2.5302 6.5957 0 9.1144l-14.894 14.905zm-50.144 87.349c-25.532 0-46.291-20.782-46.291-46.302 0-25.52 20.759-46.291 46.291-46.291 25.515 0 46.291 20.77 46.291 46.291 0 25.52-20.77 46.291-46.291 46.291zm-50.167-87.36-14.905-14.894c-2.5187-2.5302-2.5187-6.6015 0-9.1202 2.5187-2.5187 6.6015-2.5187 9.1201 0l14.905 14.894c2.5187 2.5187 2.5187 6.5957 0 9.1202-2.5129 2.5187-6.6015 2.5187-9.1144 0zm0 82.093c2.5302-2.5302 6.613-2.5187 9.1259 0 2.5129 2.5187 2.5187 6.59 0 9.1087l-14.894 14.911c-2.5302 2.5187-6.613 2.5187-9.1201 0-2.5187-2.5187-2.5187-6.59 0-9.1259l14.894-14.894zm100.31-0.0115 14.905 14.905c2.5302 2.5187 2.5302 6.59 0 9.1086-2.5129 2.5187-6.59 2.5187-9.1144 0l-14.894-14.894c-2.5302-2.5187-2.5302-6.6015 0-9.1202 2.5187-2.5187 6.59-2.5187 9.1086 0zm-44.853-105.51c0 3.5653-2.2254 6.4405-5.7849 6.4405-3.5652 0-5.7792-2.8752-5.7792-6.4405v-21.07c0-3.5653 2.2254-6.452 5.7792-6.452s5.7849 2.8867 5.7849 6.452zm-69.775 69.775h-21.081c-3.5538 0-6.4405-2.2312-6.4405-5.7849 0-3.5768 2.8867-5.7849 6.4405-5.7849h21.081c3.5653 0 6.4405 2.2082 6.4405 5.7849 0 3.5538-2.8752 5.7792-6.4405 5.7792zm58.194 59.195c0-3.5653 2.2312-6.4577 5.7849-6.4405 3.5652 0 5.7849 2.8752 5.7849 6.4405v21.075c0 3.5423-2.2254 6.4405-5.7849 6.4405-3.5652 0-5.7792-2.8982-5.7792-6.4405v-21.081zm70.776-70.765h21.064c3.5652 0 6.4577 2.2082 6.4577 5.7849 0 3.5538-2.8867 5.7792-6.4577 5.7792h-21.064c-3.5652 0-6.452-2.2427-6.452-5.7849 0-3.5768 2.8752-5.7849 6.452-5.7849z" enable-background="new" fill="#bfbfbf" opacity=".2" stroke-width="5.7504"/>
</svg>
