<?xml version="1.0" encoding="UTF-8"?>
<svg id="svg24" width="86" height="86" version="1.1" viewBox="0 0 86 86" xmlns="http://www.w3.org/2000/svg" xmlns:cc="http://creativecommons.org/ns#" xmlns:dc="http://purl.org/dc/elements/1.1/" xmlns:rdf="http://www.w3.org/1999/02/22-rdf-syntax-ns#" xmlns:xlink="http://www.w3.org/1999/xlink">
 <metadata id="metadata30">
  <rdf:RDF>
   <cc:Work rdf:about="">
    <dc:format>image/svg+xml</dc:format>
    <dc:type rdf:resource="http://purl.org/dc/dcmitype/StillImage"/>
    <dc:title/>
   </cc:Work>
  </rdf:RDF>
 </metadata>
 <defs id="defs28">
  <linearGradient id="linearGradient870" x1=".73069" x2="85.283" y1="85.269" y2=".7171" gradientTransform="matrix(-1 0 0 1 86 9.5e-5)" gradientUnits="userSpaceOnUse">
   <stop id="stop872" stop-color="#cd0000" offset="0"/>
   <stop id="stop874" stop-color="#ff3e3e" stop-opacity=".1134" offset="1"/>
  </linearGradient>
 </defs>
 <linearGradient id="a" x1="39.023" x2="39.023" y1="-32.506" y2="-31.498" gradientTransform="matrix(34.185 0 0 -20.757 -1277.4 -621.75)" gradientUnits="userSpaceOnUse">
  <stop id="stop4" stop-color="#ddd" offset="0"/>
  <stop id="stop6" stop-color="#f0f0f0" offset=".75"/>
  <stop id="stop8" stop-color="#f7f7f7" offset="1"/>
 </linearGradient>
 <linearGradient id="b" x1="578" x2="578" y1="844.99" y2="821.94" gradientTransform="matrix(1.2531 0 0 1.2531 -688.33 -990.82)" gradientUnits="userSpaceOnUse">
  <stop id="stop13" stop-color="#eaeaea" offset="0"/>
  <stop id="stop15" stop-color="#f3f3f3" offset=".485"/>
  <stop id="stop17" stop-color="#fcfcfc" offset="1"/>
 </linearGradient>
 <g id="layer3">
  <path id="path873" d="m84.275 85.699c0.78599 0 1.4238-0.63588 1.4238-1.4219v-41.277c0-8.1063-2.2589-15.685-6.1816-22.141-2.9e-4 -4.81e-4 3e-4 -0.0015 0-2e-3 -0.35635-0.58644-0.72601-1.163-1.1094-1.7305-3.1e-4 -4.54e-4 3e-4 -0.0015 0-2e-3 -0.3834-0.56746-0.7819-1.1243-1.1914-1.6719-3.2e-4 -4.24e-4 3.2e-4 -0.0015 0-2e-3 -0.40954-0.54759-0.83281-1.0845-1.2676-1.6113-3.2e-4 -3.95e-4 3.3e-4 -0.0016 0-2e-3 -3.4806-4.2173-7.7559-7.7556-12.596-10.385-1.2101-0.65734-2.4553-1.2567-3.7324-1.7969-0.63857-0.2701-1.2854-0.52616-1.9394-0.76562-1.308-0.47891-2.6454-0.89507-4.0098-1.2461-0.68218-0.17552-1.3715-0.33436-2.0664-0.47656-1.3898-0.2844-2.8048-0.50266-4.2402-0.64844-1.4355-0.14578-2.8913-0.21875-4.3652-0.21875h-41.275c-0.786 0-1.4238 0.63588-1.4238 1.4219v41.277c0 8.1069 2.2583 15.686 6.1816 22.143 0.35633 0.58645 0.72603 1.163 1.1094 1.7305 3e-4 4.4e-4 -3e-4 0.0015 0 2e-3 0.38337 0.56747 0.78191 1.1243 1.1914 1.6719 3e-4 4.1e-4 -3.1e-4 0.0015 0 2e-3 0.40952 0.5476 0.83282 1.0845 1.2676 1.6113 3.1e-4 3.8e-4 -3.2e-4 0.0016 0 2e-3 0.43509 0.52722 0.88232 1.0433 1.3418 1.5488 3.2163 3.5387 7.0187 6.5352 11.254 8.8359 1.2101 0.65734 2.4553 1.2567 3.7324 1.7969 0.63857 0.2701 1.2854 0.52616 1.9394 0.76562 1.308 0.47891 2.6454 0.89507 4.0098 1.2461 0.68218 0.17552 1.3715 0.33436 2.0664 0.47656 1.3898 0.2844 2.8048 0.50266 4.2402 0.64844s2.8913 0.21875 4.3652 0.21875z" fill="#ff2323"/>
  <path id="path8" d="m84.275 85.699c0.78599 0 1.4238-0.63588 1.4238-1.4219v-41.277c0-8.1063-2.2589-15.685-6.1816-22.141-2.9e-4 -4.81e-4 3e-4 -0.0015 0-2e-3 -0.35635-0.58644-0.72601-1.163-1.1094-1.7305-3.1e-4 -4.54e-4 3e-4 -0.0015 0-2e-3 -0.3834-0.56746-0.7819-1.1243-1.1914-1.6719-3.2e-4 -4.24e-4 3.2e-4 -0.0015 0-2e-3 -0.40954-0.54759-0.83281-1.0845-1.2676-1.6113-3.2e-4 -3.95e-4 3.3e-4 -0.0016 0-2e-3 -3.4806-4.2173-7.7559-7.7556-12.596-10.385-1.2101-0.65734-2.4553-1.2567-3.7324-1.7969-0.63857-0.2701-1.2854-0.52616-1.9394-0.76562-1.308-0.47891-2.6454-0.89507-4.0098-1.2461-0.68218-0.17552-1.3715-0.33436-2.0664-0.47656-1.3898-0.2844-2.8048-0.50266-4.2402-0.64844-1.4355-0.14578-2.8913-0.21875-4.3652-0.21875h-41.275c-0.786 0-1.4238 0.63588-1.4238 1.4219v41.277c0 8.1069 2.2583 15.686 6.1816 22.143 0.35633 0.58645 0.72603 1.163 1.1094 1.7305 3e-4 4.4e-4 -3e-4 0.0015 0 2e-3 0.38337 0.56747 0.78191 1.1243 1.1914 1.6719 3e-4 4.1e-4 -3.1e-4 0.0015 0 2e-3 0.40952 0.5476 0.83282 1.0845 1.2676 1.6113 3.1e-4 3.8e-4 -3.2e-4 0.0016 0 2e-3 0.43509 0.52722 0.88232 1.0433 1.3418 1.5488 3.2163 3.5387 7.0187 6.5352 11.254 8.8359 1.2101 0.65734 2.4553 1.2567 3.7324 1.7969 0.63857 0.2701 1.2854 0.52616 1.9394 0.76562 1.308 0.47891 2.6454 0.89507 4.0098 1.2461 0.68218 0.17552 1.3715 0.33436 2.0664 0.47656 1.3898 0.2844 2.8048 0.50266 4.2402 0.64844s2.8913 0.21875 4.3652 0.21875z" fill="url(#linearGradient870)"/>
  <g id="g881" stroke-width="1.2531">
   <path id="path2" d="m51.909 29.049c-0.54761 0.54887-1.4361 0.54887-1.9849 0s-0.54887-1.4373 0-1.9874l3.2456-3.2456c0.55137-0.54887 1.4411-0.54887 1.9874 0 0.55137 0.54887 0.55137 1.4373 0 1.9862l-3.2456 3.2481zm-10.927 19.035c-5.5639 0-10.088-4.5288-10.088-10.09 0-5.5613 4.5238-10.088 10.088-10.088 5.5601 0 10.088 4.5263 10.088 10.088 0 5.5613-4.5263 10.088-10.088 10.088zm-10.932-19.037-3.2481-3.2456c-0.54887-0.55137-0.54887-1.4386 0-1.9874 0.54887-0.54887 1.4386-0.54887 1.9874 0l3.2481 3.2456c0.54887 0.54887 0.54887 1.4373 0 1.9874-0.54761 0.54887-1.4386 0.54887-1.9862 0zm0 17.89c0.55137-0.55137 1.4411-0.54887 1.9887 0 0.54761 0.54887 0.54887 1.4361 0 1.9849l-3.2456 3.2493c-0.55137 0.54887-1.4411 0.54887-1.9874 0-0.54887-0.54887-0.54887-1.4361 0-1.9887l3.2456-3.2456zm21.859-0.0025 3.2481 3.2481c0.55137 0.54887 0.55137 1.4361 0 1.9849-0.54761 0.54887-1.4361 0.54887-1.9862 0l-3.2456-3.2456c-0.55137-0.54887-0.55137-1.4386 0-1.9874 0.54887-0.54887 1.4361-0.54887 1.9849 0zm-9.7743-22.992c0 0.77694-0.48496 1.4035-1.2606 1.4035-0.77693 0-1.2594-0.62656-1.2594-1.4035v-4.5914c0-0.77693 0.48496-1.406 1.2594-1.406 0.77443 0 1.2606 0.62907 1.2606 1.406zm-15.205 15.205h-4.5939c-0.77443 0-1.4035-0.48621-1.4035-1.2606 0-0.77944 0.62907-1.2606 1.4035-1.2606h4.5939c0.77694 0 1.4035 0.4812 1.4035 1.2606 0 0.77443-0.62656 1.2594-1.4035 1.2594zm12.682 12.9c0-0.77694 0.48621-1.4073 1.2606-1.4035 0.77694 0 1.2606 0.62656 1.2606 1.4035v4.5927c0 0.77192-0.48496 1.4035-1.2606 1.4035-0.77694 0-1.2594-0.63157-1.2594-1.4035v-4.5939zm15.423-15.421h4.5902c0.77693 0 1.4073 0.4812 1.4073 1.2606 0 0.77443-0.62907 1.2594-1.4073 1.2594h-4.5902c-0.77694 0-1.406-0.48872-1.406-1.2606 0-0.77944 0.62656-1.2606 1.406-1.2606z" fill="#ffc600"/>
   <path id="path11" d="m66.583 35.736c-0.78445 0-1.5338 0.12782-2.2406 0.35588-1.9085-2.4311-4.8621-3.9975-8.1854-3.9975-3.1629 0-5.9962 1.421-7.9072 3.6554-0.08772-0.0038-0.17168-0.01253-0.26065-0.01253-4.7556 0-8.6089 3.6591-8.6089 8.1804 0 4.52 3.8533 8.1829 8.6089 8.1829 1.0338 0 2.0225-0.1817 2.9411-0.49749 1.5363 0.89974 3.317 1.421 5.2255 1.421 2.995 0 5.6892-1.2782 7.5964-3.3082 0.86841 0.37343 1.8258 0.57894 2.8321 0.57894 4.0125 0 7.2556-3.2581 7.2556-7.2781-0.0038-4.025-3.2493-7.2806-7.2581-7.2806z" fill="url(#a)"/>
   <path id="path20" d="m49.754 44.199c-1.0814 0-2.1178 0.17544-3.0952 0.49373-2.6391-3.3559-6.7217-5.5162-11.316-5.5162-4.3734 0-8.2831 1.9599-10.925 5.04-0.12155-0.0025-0.23809-0.01755-0.3609-0.01755-6.5714 0-11.897 5.0576-11.897 11.294 0 6.2405 5.3258 11.296 11.897 11.296 1.4286 0 2.792-0.25313 4.0601-0.69298 2.1278 1.2406 4.5902 1.9599 7.2255 1.9599 4.1441 0 7.8633-1.7594 10.494-4.5614 1.203 0.50751 2.5275 0.79448 3.9173 0.79448 5.5388 0 10.025-4.4987 10.025-10.05 0-5.5438-4.4862-10.04-10.025-10.04z" fill="url(#b)"/>
   <path id="path22" d="m51.909 29.049c-0.54761 0.54887-1.4361 0.54887-1.9849 0s-0.54887-1.4373 0-1.9874l3.2456-3.2456c0.55137-0.54887 1.4411-0.54887 1.9874 0 0.55137 0.54887 0.55137 1.4373 0 1.9862l-3.2456 3.2481zm-10.927 19.035c-5.5639 0-10.088-4.5288-10.088-10.09 0-5.5613 4.5238-10.088 10.088-10.088 5.5601 0 10.088 4.5263 10.088 10.088 0 5.5613-4.5263 10.088-10.088 10.088zm-10.932-19.037-3.2481-3.2456c-0.54887-0.55137-0.54887-1.4386 0-1.9874 0.54887-0.54887 1.4386-0.54887 1.9874 0l3.2481 3.2456c0.54887 0.54887 0.54887 1.4373 0 1.9874-0.54761 0.54887-1.4386 0.54887-1.9862 0zm0 17.89c0.55137-0.55137 1.4411-0.54887 1.9887 0 0.54761 0.54887 0.54887 1.4361 0 1.9849l-3.2456 3.2493c-0.55137 0.54887-1.4411 0.54887-1.9874 0-0.54887-0.54887-0.54887-1.4361 0-1.9887l3.2456-3.2456zm21.859-0.0025 3.2481 3.2481c0.55137 0.54887 0.55137 1.4361 0 1.9849-0.54761 0.54887-1.4361 0.54887-1.9862 0l-3.2456-3.2456c-0.55137-0.54887-0.55137-1.4386 0-1.9874 0.54887-0.54887 1.4361-0.54887 1.9849 0zm-9.7743-22.992c0 0.77694-0.48496 1.4035-1.2606 1.4035-0.77693 0-1.2594-0.62656-1.2594-1.4035v-4.5914c0-0.77693 0.48496-1.406 1.2594-1.406 0.77443 0 1.2606 0.62907 1.2606 1.406zm-15.205 15.205h-4.5939c-0.77443 0-1.4035-0.48621-1.4035-1.2606 0-0.77944 0.62907-1.2606 1.4035-1.2606h4.5939c0.77694 0 1.4035 0.4812 1.4035 1.2606 0 0.77443-0.62656 1.2594-1.4035 1.2594zm12.682 12.9c0-0.77694 0.48621-1.4073 1.2606-1.4035 0.77694 0 1.2606 0.62656 1.2606 1.4035v4.5927c0 0.77192-0.48496 1.4035-1.2606 1.4035-0.77694 0-1.2594-0.63157-1.2594-1.4035v-4.5939zm15.423-15.421h4.5902c0.77693 0 1.4073 0.4812 1.4073 1.2606 0 0.77443-0.62907 1.2594-1.4073 1.2594h-4.5902c-0.77694 0-1.406-0.48872-1.406-1.2606 0-0.77944 0.62656-1.2606 1.406-1.2606z" enable-background="new" fill="#ffc600" opacity=".2"/>
  </g>
 </g>
</svg>
