<?xml version="1.0" encoding="UTF-8" standalone="no"?>
<svg
   xmlns:dc="http://purl.org/dc/elements/1.1/"
   xmlns:cc="http://creativecommons.org/ns#"
   xmlns:rdf="http://www.w3.org/1999/02/22-rdf-syntax-ns#"
   xmlns:svg="http://www.w3.org/2000/svg"
   xmlns="http://www.w3.org/2000/svg"
   xmlns:xlink="http://www.w3.org/1999/xlink"
   xmlns:sodipodi="http://sodipodi.sourceforge.net/DTD/sodipodi-0.dtd"
   xmlns:inkscape="http://www.inkscape.org/namespaces/inkscape"
   width="86"
   height="86"
   viewBox="0 0 86 86"
   version="1.1"
   id="svg24"
   sodipodi:docname="harbour-meteoswiss.svg"
   inkscape:version="0.92.3 (unknown)"
   inkscape:export-filename="/home/mirian/src/Sailfish/harbour-meteoswiss/icons/108x108/harbour-meteoswiss.png"
   inkscape:export-xdpi="120.56"
   inkscape:export-ydpi="120.56">
  <metadata
     id="metadata30">
    <rdf:RDF>
      <cc:Work
         rdf:about="">
        <dc:format>image/svg+xml</dc:format>
        <dc:type
           rdf:resource="http://purl.org/dc/dcmitype/StillImage" />
        <dc:title />
      </cc:Work>
    </rdf:RDF>
  </metadata>
  <defs
     id="defs28">
    <linearGradient
       inkscape:collect="always"
       id="linearGradient876">
      <stop
         style="stop-color:#cd0000;stop-opacity:1"
         offset="0"
         id="stop872" />
      <stop
         style="stop-color:#ff3e3e;stop-opacity:0.11340206"
         offset="1"
         id="stop874" />
    </linearGradient>
    <linearGradient
       inkscape:collect="always"
       xlink:href="#linearGradient876"
       id="linearGradient870"
       gradientUnits="userSpaceOnUse"
       gradientTransform="matrix(-1,0,0,1,85.999995,9.5e-5)"
       x1="0.73069215"
       y1="85.269302"
       x2="85.282898"
       y2="0.71710002" />
  </defs>
  <sodipodi:namedview
     pagecolor="#ffffff"
     bordercolor="#666666"
     borderopacity="1"
     objecttolerance="10"
     gridtolerance="10"
     guidetolerance="10"
     inkscape:pageopacity="0"
     inkscape:pageshadow="2"
     inkscape:window-width="1600"
     inkscape:window-height="835"
     id="namedview26"
     showgrid="false"
     inkscape:zoom="3.7093024"
     inkscape:cx="17.918839"
     inkscape:cy="46.709964"
     inkscape:window-x="0"
     inkscape:window-y="0"
     inkscape:window-maximized="1"
     inkscape:current-layer="layer3"
     showguides="true"
     inkscape:guide-bbox="true" />
  <linearGradient
     id="a"
     gradientUnits="userSpaceOnUse"
     x1="39.022999"
     y1="-32.506001"
     x2="39.022999"
     y2="-31.497999"
     gradientTransform="matrix(34.185115,0,0,-20.756681,-1277.3593,-621.75386)">
    <stop
       offset="0"
       stop-color="#CBCBCB"
       id="stop4"
       style="stop-color:#dddddd;stop-opacity:1" />
    <stop
       offset=".75"
       stop-color="#D8D8D8"
       id="stop6"
       style="stop-color:#f0f0f0;stop-opacity:1" />
    <stop
       offset="1"
       stop-color="#E1E1E1"
       id="stop8"
       style="stop-color:#f7f7f7;stop-opacity:1" />
  </linearGradient>
  <linearGradient
     id="b"
     gradientUnits="userSpaceOnUse"
     x1="578"
     y1="844.99103"
     x2="578"
     y2="821.94397"
     gradientTransform="matrix(1.25312,0,0,1.25312,-688.33401,-990.81778)">
    <stop
       offset="0"
       stop-color="#CBCBCB"
       id="stop13"
       style="stop-color:#eaeaea;stop-opacity:1" />
    <stop
       offset=".485"
       stop-color="#D8D8D8"
       id="stop15"
       style="stop-color:#f3f3f3;stop-opacity:1" />
    <stop
       offset="1"
       stop-color="#E1E1E1"
       id="stop17"
       style="stop-color:#fcfcfc;stop-opacity:1" />
  </linearGradient>
  <g
     inkscape:groupmode="layer"
     id="layer3"
     inkscape:label="main"
     style="display:inline">
    <path
       inkscape:connector-curvature="0"
       id="path873"
       d="m 84.275394,85.699313 c 0.78599,0 1.42382,-0.635878 1.42382,-1.421875 0,0 0,-40.641344 0,-41.277344 0,-8.106313 -2.25886,-15.68451 -6.18164,-22.140625 -2.9e-4,-4.81e-4 3e-4,-0.0015 0,-0.002 -0.35635,-0.586436 -0.72601,-1.163008 -1.10937,-1.730469 -3.1e-4,-4.54e-4 3e-4,-0.0015 0,-0.002 -0.3834,-0.56746 -0.7819,-1.124283 -1.19141,-1.671875 -3.2e-4,-4.24e-4 3.2e-4,-0.0015 0,-0.002 -0.40954,-0.547591 -0.83281,-1.0845 -1.26758,-1.611328 -3.2e-4,-3.95e-4 3.3e-4,-0.0016 0,-0.002 -3.4806,-4.217282 -7.755888,-7.7555792 -12.595698,-10.3847662 -1.21006,-0.657335 -2.45528,-1.256699 -3.73242,-1.796875 -0.63857,-0.270098 -1.28545,-0.526159 -1.93945,-0.765625 -1.30801,-0.478913 -2.64542,-0.895071 -4.00977,-1.246094 -0.68218,-0.175519 -1.37148,-0.334358 -2.06641,-0.476562 -1.38985,-0.28439595 -2.80476,-0.50266295 -4.24023,-0.64843795 -1.43547,-0.145781 -2.8913,-0.21875 -4.36524,-0.21875 H 1.724606 c -0.786,0 -1.42382,0.635878 -1.42382,1.42187495 0,0 0,40.6413442 0,41.2773442 0,8.106902 2.25833,15.686158 6.18164,22.142578 0.35633,0.58645 0.72603,1.162995 1.10937,1.730469 3e-4,4.4e-4 -3e-4,0.0015 0,0.002 0.38337,0.567473 0.78191,1.124272 1.19141,1.671875 3e-4,4.1e-4 -3.1e-4,0.0015 0,0.002 0.40952,0.547602 0.83282,1.08449 1.26758,1.611328 3.1e-4,3.8e-4 -3.2e-4,0.0016 0,0.002 0.43509,0.527218 0.88232,1.0433 1.34179,1.548829 3.21628,3.538746 7.01869,6.535191 11.25391,8.835937 1.21006,0.657335 2.45528,1.256699 3.73242,1.796875 0.63857,0.270098 1.28545,0.526159 1.93945,0.765625 1.30801,0.478914 2.64541,0.895071 4.00977,1.246094 0.68218,0.175519 1.37148,0.334358 2.06641,0.476562 1.38984,0.284396 2.80476,0.502663 4.24023,0.648438 1.43547,0.145775 2.8913,0.21875 4.36523,0.21875 z"
       style="fill:#ff2323;fill-opacity:1" />
    <path
       style="fill:url(#linearGradient870);fill-opacity:1"
       d="m 84.275395,85.699313 c 0.78599,0 1.42382,-0.635878 1.42382,-1.421875 0,0 0,-40.641344 0,-41.277344 0,-8.106313 -2.25886,-15.68451 -6.18164,-22.140625 -2.9e-4,-4.81e-4 3e-4,-0.0015 0,-0.002 -0.35635,-0.586436 -0.72601,-1.163008 -1.10937,-1.730469 -3.1e-4,-4.54e-4 3e-4,-0.0015 0,-0.002 -0.3834,-0.56746 -0.7819,-1.124283 -1.19141,-1.671875 -3.2e-4,-4.24e-4 3.2e-4,-0.0015 0,-0.002 -0.40954,-0.547591 -0.83281,-1.0845 -1.26758,-1.611328 -3.2e-4,-3.95e-4 3.3e-4,-0.0016 0,-0.002 -3.4806,-4.217282 -7.75589,-7.755579 -12.5957,-10.384766 -1.21006,-0.657335 -2.45528,-1.256699 -3.73242,-1.796875 -0.63857,-0.270098 -1.28545,-0.526159 -1.93945,-0.765625 -1.30801,-0.478913 -2.64542,-0.895071 -4.00977,-1.246094 -0.68218,-0.175519 -1.37148,-0.334358 -2.06641,-0.476562 -1.38985,-0.284396 -2.80476,-0.502663 -4.24023,-0.648438 -1.43547,-0.145781 -2.8913,-0.21875 -4.36524,-0.21875 H 1.724605 c -0.786,0 -1.42382,0.635878 -1.42382,1.421875 0,0 0,40.641344 0,41.277344 0,8.106902 2.25833,15.686158 6.18164,22.142578 0.35633,0.58645 0.72603,1.162995 1.10937,1.730469 3e-4,4.4e-4 -3e-4,0.0015 0,0.002 0.38337,0.567473 0.78191,1.124272 1.19141,1.671875 3e-4,4.1e-4 -3.1e-4,0.0015 0,0.002 0.40952,0.547602 0.83282,1.08449 1.26758,1.611328 3.1e-4,3.8e-4 -3.2e-4,0.0016 0,0.002 0.43509,0.527218 0.88232,1.0433 1.34179,1.548829 3.21628,3.538746 7.01869,6.535191 11.25391,8.835937 1.21006,0.657335 2.45528,1.256699 3.73242,1.796875 0.63857,0.270098 1.28545,0.526159 1.93945,0.765625 1.30801,0.478914 2.64541,0.895071 4.00977,1.246094 0.68218,0.175519 1.37148,0.334358 2.06641,0.476562 1.38984,0.284396 2.80476,0.502663 4.24023,0.648438 1.43547,0.145775 2.8913,0.21875 4.36523,0.21875 z"
       id="path8"
       inkscape:connector-curvature="0" />
    <g
       id="g881">
      <path
         style="fill:#ffc600;stroke-width:1.25312006"
         inkscape:connector-curvature="0"
         id="path2"
         d="m 51.909058,29.049016 c -0.547613,0.548867 -1.436075,0.548867 -1.984942,0 -0.548867,-0.548867 -0.548867,-1.437329 0,-1.987449 l 3.245581,-3.245581 c 0.551373,-0.548866 1.441088,-0.548866 1.987449,0 0.551372,0.548867 0.551372,1.437329 0,1.986196 l -3.245581,3.248087 z M 40.981852,48.083909 c -5.563853,0 -10.087617,-4.528776 -10.087617,-10.090122 0,-5.561347 4.523764,-10.087617 10.087617,-10.087617 5.560093,0 10.087615,4.52627 10.087615,10.087617 0,5.561346 -4.526269,10.087615 -10.087615,10.087615 z m -10.93222,-19.0374 -3.248087,-3.24558 c -0.548866,-0.551373 -0.548866,-1.438582 0,-1.987449 0.548867,-0.548866 1.438582,-0.548866 1.987449,0 l 3.248087,3.245581 c 0.548867,0.548867 0.548867,1.437329 0,1.987448 -0.547614,0.548867 -1.438582,0.548867 -1.986195,0 z m 0,17.889542 c 0.551373,-0.551373 1.441089,-0.548867 1.988702,0 0.547614,0.548867 0.548866,1.436076 0,1.984942 l -3.245581,3.24934 c -0.551372,0.548867 -1.441088,0.548867 -1.987448,0 -0.548867,-0.548866 -0.548867,-1.436075 0,-1.988702 l 3.245581,-3.24558 z m 21.859426,-0.0025 3.248088,3.248086 c 0.551372,0.548868 0.551372,1.436076 0,1.984943 -0.547614,0.548866 -1.436076,0.548866 -1.986196,0 l -3.245581,-3.245581 c -0.551372,-0.548867 -0.551372,-1.438582 0,-1.987448 0.548867,-0.548867 1.436076,-0.548867 1.984943,0 z M 42.134722,23.941298 c 0,0.776935 -0.484958,1.403495 -1.260639,1.403495 -0.776934,0 -1.259386,-0.62656 -1.259386,-1.403495 v -4.591432 c 0,-0.776934 0.484958,-1.406 1.259386,-1.406 0.774429,0 1.260639,0.629066 1.260639,1.406 z M 26.929363,39.146657 h -4.593937 c -0.774429,0 -1.403495,-0.48621 -1.403495,-1.260639 0,-0.779441 0.629066,-1.260638 1.403495,-1.260638 h 4.593937 c 0.776935,0 1.403495,0.481197 1.403495,1.260638 0,0.774429 -0.62656,1.259385 -1.403495,1.259385 z m 12.681575,12.899618 c 0,-0.776935 0.486211,-1.407254 1.260639,-1.403495 0.776935,0 1.260639,0.62656 1.260639,1.403495 v 4.592685 c 0,0.771921 -0.484957,1.403494 -1.260639,1.403494 -0.776935,0 -1.259385,-0.631573 -1.259385,-1.403494 V 52.045021 Z M 55.03434,36.62538 h 4.590178 c 0.776934,0 1.407254,0.481197 1.407254,1.260638 0,0.774429 -0.629066,1.259385 -1.407254,1.259385 H 55.03434 c -0.776935,0 -1.406001,-0.488716 -1.406001,-1.260638 0,-0.77944 0.62656,-1.260639 1.406001,-1.260639 z" />
      <path
         style="fill:url(#a);stroke-width:1.25312006"
         inkscape:connector-curvature="0"
         id="path11"
         d="m 66.583094,35.735665 c -0.784454,0 -1.533819,0.127817 -2.240579,0.355885 -1.908502,-2.431053 -4.862106,-3.997452 -8.18538,-3.997452 -3.162875,0 -5.996179,1.421038 -7.907187,3.655351 -0.08772,-0.0038 -0.171677,-0.01253 -0.260649,-0.01253 -4.755591,0 -8.608934,3.659111 -8.608934,8.180368 0,4.520004 3.853343,8.182873 8.608934,8.182873 1.033824,0 2.022536,-0.181701 2.941072,-0.497488 1.536325,0.89974 3.317009,1.421038 5.225511,1.421038 2.994957,0 5.689165,-1.278182 7.596414,-3.308236 0.868412,0.373429 1.825796,0.578941 2.832051,0.578941 4.01249,0 7.255565,-3.258112 7.255565,-7.278122 -0.0038,-4.02502 -3.249341,-7.280626 -7.258071,-7.280626 z" />
      <path
         style="fill:url(#b);stroke-width:1.25312006"
         inkscape:connector-curvature="0"
         id="path20"
         d="m 49.753692,44.199237 c -1.081443,0 -2.117773,0.175436 -3.095206,0.493729 -2.639072,-3.355855 -6.721737,-5.516234 -11.315674,-5.516234 -4.373389,0 -8.283124,1.95988 -10.924701,5.040048 -0.121552,-0.0025 -0.238093,-0.01755 -0.360899,-0.01755 -6.571361,0 -11.897121,5.057592 -11.897121,11.294371 0,6.240538 5.32576,11.295624 11.897121,11.295624 1.428557,0 2.791952,-0.253131 4.060109,-0.692975 2.127798,1.240589 4.590179,1.959879 7.225491,1.959879 4.144068,0 7.863328,-1.75938 10.493626,-4.561356 1.202996,0.507513 2.527543,0.794477 3.917254,0.794477 5.538791,0 10.02496,-4.498701 10.02496,-10.050022 0,-5.543803 -4.486169,-10.039998 -10.02496,-10.039998 z" />
      <path
         style="opacity:0.2;fill:#ffc600;stroke-width:1.25312006;enable-background:new"
         inkscape:connector-curvature="0"
         id="path22"
         d="m 51.909058,29.049016 c -0.547613,0.548867 -1.436075,0.548867 -1.984942,0 -0.548867,-0.548867 -0.548867,-1.437329 0,-1.987449 l 3.245581,-3.245581 c 0.551373,-0.548866 1.441088,-0.548866 1.987449,0 0.551372,0.548867 0.551372,1.437329 0,1.986196 l -3.245581,3.248087 z M 40.981852,48.083909 c -5.563853,0 -10.087617,-4.528776 -10.087617,-10.090122 0,-5.561347 4.523764,-10.087617 10.087617,-10.087617 5.560093,0 10.087615,4.52627 10.087615,10.087617 0,5.561346 -4.526269,10.087615 -10.087615,10.087615 z m -10.93222,-19.0374 -3.248087,-3.24558 c -0.548866,-0.551373 -0.548866,-1.438582 0,-1.987449 0.548867,-0.548866 1.438582,-0.548866 1.987449,0 l 3.248087,3.245581 c 0.548867,0.548867 0.548867,1.437329 0,1.987448 -0.547614,0.548867 -1.438582,0.548867 -1.986195,0 z m 0,17.889542 c 0.551373,-0.551373 1.441089,-0.548867 1.988702,0 0.547614,0.548867 0.548866,1.436076 0,1.984942 l -3.245581,3.24934 c -0.551372,0.548867 -1.441088,0.548867 -1.987448,0 -0.548867,-0.548866 -0.548867,-1.436075 0,-1.988702 l 3.245581,-3.24558 z m 21.859426,-0.0025 3.248088,3.248086 c 0.551372,0.548868 0.551372,1.436076 0,1.984943 -0.547614,0.548866 -1.436076,0.548866 -1.986196,0 l -3.245581,-3.245581 c -0.551372,-0.548867 -0.551372,-1.438582 0,-1.987448 0.548867,-0.548867 1.436076,-0.548867 1.984943,0 z M 42.134722,23.941298 c 0,0.776935 -0.484958,1.403495 -1.260639,1.403495 -0.776934,0 -1.259386,-0.62656 -1.259386,-1.403495 v -4.591432 c 0,-0.776934 0.484958,-1.406 1.259386,-1.406 0.774429,0 1.260639,0.629066 1.260639,1.406 z M 26.929363,39.146657 h -4.593937 c -0.774429,0 -1.403495,-0.48621 -1.403495,-1.260639 0,-0.779441 0.629066,-1.260638 1.403495,-1.260638 h 4.593937 c 0.776935,0 1.403495,0.481197 1.403495,1.260638 0,0.774429 -0.62656,1.259385 -1.403495,1.259385 z m 12.681575,12.899618 c 0,-0.776935 0.486211,-1.407254 1.260639,-1.403495 0.776935,0 1.260639,0.62656 1.260639,1.403495 v 4.592685 c 0,0.771921 -0.484957,1.403494 -1.260639,1.403494 -0.776935,0 -1.259385,-0.631573 -1.259385,-1.403494 V 52.045021 Z M 55.03434,36.62538 h 4.590178 c 0.776934,0 1.407254,0.481197 1.407254,1.260638 0,0.774429 -0.629066,1.259385 -1.407254,1.259385 H 55.03434 c -0.776935,0 -1.406001,-0.488716 -1.406001,-1.260638 0,-0.77944 0.62656,-1.260639 1.406001,-1.260639 z" />
    </g>
  </g>
</svg>
