<svg xmlns="http://www.w3.org/2000/svg" width="40" height="40" viewBox="0 0 40 40"><path fill="#FFE958" d="M19.064 1c.92 2.022 1.445 4.26 1.445 6.624 0 7.624-5.34 13.997-12.5 15.665 2.374 2.31 5.62 3.74 9.207 3.74 7.273 0 13.17-5.86 13.17-13.087C30.387 7.34 25.46 1.893 19.064 1z"/><linearGradient id="a" gradientUnits="userSpaceOnUse" x1="38.643" y1="-33.64" x2="38.643" y2="-32.632" gradientTransform="matrix(27.28 0 0 -16.564 -1027.906 -519.267)"><stop offset="0" stop-color="#CBCBCB"/><stop offset=".485" stop-color="#D8D8D8"/><stop offset="1" stop-color="#E1E1E1"/></linearGradient><path fill="url(#a)" d="M34.21 24.197c-.627 0-1.225.102-1.79.284-1.522-1.937-3.88-3.188-6.53-3.188-2.525 0-4.786 1.134-6.31 2.915-.07-.002-.138-.01-.21-.01-3.794 0-6.87 2.923-6.87 6.53 0 3.606 3.076 6.53 6.87 6.53.826 0 1.615-.146 2.347-.398 1.228.716 2.648 1.132 4.172 1.132 2.39 0 4.54-1.02 6.06-2.64.694.298 1.458.462 2.262.462 3.2 0 5.79-2.6 5.79-5.808-.004-3.21-2.594-5.81-5.793-5.81z"/><path opacity=".4" fill="#FFE958" enable-background="new" d="M19.064 1c.92 2.022 1.445 4.26 1.445 6.624 0 7.624-5.34 13.997-12.5 15.665 2.374 2.31 5.62 3.74 9.207 3.74 7.273 0 13.17-5.86 13.17-13.087C30.387 7.34 25.46 1.893 19.064 1z"/></svg>