<svg xmlns="http://www.w3.org/2000/svg" width="40" height="40" viewBox="0 0 40 40"><path fill="#FFE958" d="M19.064 0c.92 2.022 1.445 4.26 1.445 6.624 0 7.624-5.34 13.997-12.5 15.665 2.374 2.31 5.62 3.74 9.207 3.74 7.273 0 13.17-5.86 13.17-13.087C30.387 6.34 25.46.893 19.064 0z"/><linearGradient id="a" gradientUnits="userSpaceOnUse" x1="38.541" y1="-33.037" x2="38.541" y2="-32.028" gradientTransform="matrix(27.28 0 0 -16.564 -1027.906 -519.267)"><stop offset="0" stop-color="#888"/><stop offset="1" stop-color="#BEBEBE"/></linearGradient><path fill="url(#a)" d="M31.43 14.198c-.626 0-1.224.102-1.788.284-1.523-1.94-3.88-3.19-6.532-3.19-2.524 0-4.785 1.134-6.31 2.917-.07-.003-.137-.01-.208-.01-3.795 0-6.87 2.92-6.87 6.528 0 3.607 3.075 6.53 6.87 6.53.825 0 1.614-.145 2.347-.397 1.226.718 2.647 1.134 4.17 1.134 2.39 0 4.54-1.02 6.062-2.64.693.298 1.457.462 2.26.462 3.202 0 5.79-2.6 5.79-5.808-.003-3.212-2.593-5.81-5.792-5.81z"/><linearGradient id="b" gradientUnits="userSpaceOnUse" x1="578" y1="844.991" x2="578" y2="821.944" gradientTransform="translate(-559 -805)"><stop offset="0" stop-color="#888"/><stop offset="1" stop-color="#BEBEBE"/></linearGradient><path fill="url(#b)" d="M30 20.952c-.863 0-1.69.14-2.47.394-2.106-2.678-5.364-4.402-9.03-4.402-3.49 0-6.61 1.564-8.718 4.022-.097-.002-.19-.014-.288-.014C4.25 20.952 0 24.988 0 29.965c0 4.98 4.25 9.014 9.494 9.014 1.14 0 2.228-.202 3.24-.553 1.698.99 3.663 1.564 5.766 1.564 3.307 0 6.275-1.404 8.374-3.64.96.405 2.017.634 3.126.634 4.42 0 8-3.59 8-8.02 0-4.424-3.58-8.012-8-8.012z"/><path opacity=".4" fill="#FFE958" enable-background="new" d="M19.064 0c.92 2.022 1.445 4.26 1.445 6.624 0 7.624-5.34 13.997-12.5 15.665 2.374 2.31 5.62 3.74 9.207 3.74 7.273 0 13.17-5.86 13.17-13.087C30.387 6.34 25.46.893 19.064 0z"/></svg>