<svg xmlns="http://www.w3.org/2000/svg" width="40" height="40" viewBox="0 0 40 40"><linearGradient id="a" gradientUnits="userSpaceOnUse" x1="25.331" y1="53.144" x2="25.331" y2="52.136" gradientTransform="matrix(27.28 0 0 16.564 -667.563 -863.609)"><stop offset="0" stop-color="#888"/><stop offset="1" stop-color="#BEBEBE"/></linearGradient><path fill="url(#a)" d="M31.43 2.906c-.626 0-1.224.102-1.788.284C28.118 1.25 25.762 0 23.108 0c-2.524 0-4.785 1.133-6.31 2.916-.07-.002-.137-.01-.208-.01-3.795 0-6.87 2.922-6.87 6.53 0 3.606 3.075 6.53 6.87 6.53.825 0 1.613-.146 2.346-.4 1.228.718 2.648 1.134 4.172 1.134 2.39 0 4.54-1.02 6.06-2.64.695.298 1.46.462 2.263.462 3.2 0 5.79-2.6 5.79-5.807 0-3.21-2.59-5.81-5.79-5.81z"/><linearGradient id="b" gradientUnits="userSpaceOnUse" x1="19.592" y1="39.742" x2="19.592" y2="38.742" gradientTransform="matrix(38 0 0 23.047 -725.5 -887.266)"><stop offset="0" stop-color="#888"/><stop offset="1" stop-color="#BEBEBE"/></linearGradient><path fill="url(#b)" d="M30 9.66c-.863 0-1.69.14-2.47.394-2.106-2.678-5.364-4.402-9.03-4.402-3.49 0-6.61 1.564-8.718 4.022-.097-.002-.19-.014-.288-.014C4.25 9.66 0 13.696 0 18.673c0 4.98 4.25 9.014 9.494 9.014 1.14 0 2.228-.2 3.24-.552 1.698.99 3.663 1.564 5.766 1.564 3.307 0 6.275-1.406 8.374-3.643.96.407 2.017.635 3.126.635 4.42 0 8-3.59 8-8.018 0-4.426-3.58-8.014-8-8.014z"/><path fill="#9CDEFF" d="M7.584 21.94c-1.43 0-2.588-1.145-2.588-2.56 0-1.416 1.375-3.04 2.588-4.607 1.147 1.615 2.587 3.193 2.587 4.607s-1.157 2.56-2.586 2.56zm23.7-.9c-1.438 0-2.604-1.17-2.604-2.612 0-1.44 1.385-3.1 2.604-4.696 1.155 1.647 2.604 3.257 2.604 4.696 0 1.442-1.165 2.61-2.604 2.61zM18.948 26c-1.813 0-3.284-1.474-3.284-3.29 0-1.82 1.745-3.91 3.284-5.924 1.456 2.078 3.282 4.104 3.282 5.923 0 1.816-1.468 3.29-3.282 3.29z"/><path fill="#7AC4E9" d="M7.584 35.94c-1.43 0-2.588-1.145-2.588-2.56 0-1.416 1.375-3.04 2.588-4.607 1.147 1.615 2.587 3.193 2.587 4.607s-1.157 2.56-2.586 2.56zm23.7-.9c-1.438 0-2.604-1.17-2.604-2.612 0-1.44 1.385-3.1 2.604-4.696 1.155 1.647 2.604 3.257 2.604 4.696 0 1.442-1.165 2.61-2.604 2.61zM18.948 40c-1.813 0-3.284-1.474-3.284-3.29 0-1.82 1.745-3.91 3.284-5.924 1.456 2.078 3.282 4.104 3.282 5.923 0 1.816-1.468 3.29-3.282 3.29z"/></svg>