<svg xmlns="http://www.w3.org/2000/svg" width="40" height="40" viewBox="0 0 40 40"><path fill="#FFE958" d="M19.064 13.97c.92 2.022 1.445 4.26 1.445 6.625 0 7.624-5.34 13.997-12.5 15.665 2.374 2.312 5.62 3.74 9.207 3.74 7.273 0 13.17-5.86 13.17-13.086 0-6.603-4.928-12.05-11.323-12.943z"/><linearGradient id="a" gradientUnits="userSpaceOnUse" x1="21" y1="40.73" x2="21" y2="35.472" gradientTransform="matrix(1 0 0 -1 0 55.742)"><stop offset="0" stop-color="#CBCBCB"/><stop offset=".175" stop-color="#D8D8D8"/><stop offset="1" stop-color="#EBEBEB"/></linearGradient><path fill="url(#a)" d="M32.358 20.26c-2.36 0-16.43-1.522-26.358-2.628v-1.257c9.473.808 22.77 1.884 26.358 1.884 1.796 0 3.258-1.463 3.258-3.26 1.142 2.88-.355 5.26-3.258 5.26z"/><linearGradient id="b" gradientUnits="userSpaceOnUse" x1="19" y1="45.73" x2="19" y2="40.472" gradientTransform="matrix(1 0 0 -1 0 55.742)"><stop offset="0" stop-color="#CBCBCB"/><stop offset=".175" stop-color="#D8D8D8"/><stop offset="1" stop-color="#EBEBEB"/></linearGradient><path fill="url(#b)" d="M30.358 15.26c-2.36 0-16.43-1.522-26.358-2.628v-1.257c9.473.808 22.77 1.884 26.358 1.884 1.796 0 3.258-1.463 3.258-3.26 1.142 2.88-.355 5.26-3.258 5.26z"/><linearGradient id="c" gradientUnits="userSpaceOnUse" x1="17" y1="50.73" x2="17" y2="45.472" gradientTransform="matrix(1 0 0 -1 0 55.742)"><stop offset="0" stop-color="#CBCBCB"/><stop offset=".175" stop-color="#D8D8D8"/><stop offset="1" stop-color="#EBEBEB"/></linearGradient><path fill="url(#c)" d="M28.358 10.26c-2.36 0-16.43-1.522-26.358-2.628V6.375c9.473.808 22.77 1.884 26.358 1.884 1.796 0 3.258-1.463 3.258-3.26 1.142 2.88-.355 5.26-3.258 5.26z"/><linearGradient id="d" gradientUnits="userSpaceOnUse" x1="15" y1="55.73" x2="15" y2="50.472" gradientTransform="matrix(1 0 0 -1 0 55.742)"><stop offset="0" stop-color="#CBCBCB"/><stop offset=".175" stop-color="#D8D8D8"/><stop offset="1" stop-color="#EBEBEB"/></linearGradient><path fill="url(#d)" d="M26.358 5.26C23.998 5.26 9.928 3.737 0 2.63V1.375c9.473.808 22.77 1.884 26.358 1.884 1.796 0 3.258-1.463 3.258-3.26 1.142 2.88-.355 5.26-3.258 5.26z"/><path opacity=".4" fill="#FFE958" enable-background="new" d="M19.064 13.97c.92 2.022 1.445 4.26 1.445 6.625 0 7.624-5.34 13.997-12.5 15.665 2.374 2.312 5.62 3.74 9.207 3.74 7.273 0 13.17-5.86 13.17-13.086 0-6.603-4.928-12.05-11.323-12.943z"/></svg>