<svg xmlns="http://www.w3.org/2000/svg" width="40" height="40" viewBox="0 0 40 40"><path fill="#FFC600" d="M27.722 16.862c-.438.438-1.147.438-1.584 0-.438-.438-.438-1.147 0-1.585l2.59-2.59c.437-.44 1.146-.44 1.586 0 .438.437.438 1.146 0 1.583l-2.592 2.592zM19 32.05c-4.438 0-8.05-3.61-8.05-8.05 0-4.438 3.61-8.05 8.05-8.05 4.437 0 8.05 3.612 8.05 8.05 0 4.44-3.612 8.05-8.05 8.05zm-8.723-15.188L7.684 14.27c-.437-.438-.437-1.147 0-1.584.44-.438 1.15-.438 1.588 0l2.59 2.59c.44.44.44 1.148 0 1.586-.436.44-1.147.44-1.585 0zm0 14.277c.44-.44 1.15-.44 1.587 0s.438 1.145 0 1.584l-2.59 2.592c-.44.438-1.148.438-1.588 0-.437-.437-.437-1.15 0-1.587l2.592-2.59zm17.447-.005l2.59 2.594c.44.437.44 1.145 0 1.584-.438.438-1.146.438-1.585 0l-2.592-2.59c-.438-.438-.438-1.147 0-1.59.438-.437 1.146-.437 1.586 0zm-7.805-18.35c0 .62-.39 1.123-1.006 1.123-.62 0-1.006-.502-1.006-1.122V9.122c0-.62.386-1.122 1.006-1.122.617 0 1.005.502 1.005 1.122v3.664zM7.785 24.92H4.122c-.62 0-1.122-.386-1.122-1.005 0-.62.502-1.005 1.122-1.005h3.665c.62 0 1.12.384 1.12 1.005 0 .62-.5 1.005-1.12 1.005zm10.122 10.296c0-.618.386-1.122 1.006-1.12.617 0 1.005.502 1.005 1.12v3.664c0 .618-.39 1.122-1.006 1.122-.62 0-1.006-.504-1.006-1.122v-3.664zm12.306-12.306h3.666c.62 0 1.12.384 1.12 1.005 0 .62-.5 1.005-1.12 1.005h-3.666c-.618 0-1.12-.386-1.12-1.005 0-.62.5-1.005 1.12-1.005z"/><linearGradient id="a" gradientUnits="userSpaceOnUse" x1="21" y1="40.989" x2="21" y2="35.73" gradientTransform="matrix(1 0 0 -1 0 55.742)"><stop offset="0" stop-color="#CBCBCB"/><stop offset=".175" stop-color="#D8D8D8"/><stop offset="1" stop-color="#EBEBEB"/></linearGradient><path fill="url(#a)" d="M32.358 20c-2.36 0-16.43-1.52-26.358-2.627v-1.257C15.473 16.924 28.77 18 32.358 18c1.796 0 3.258-1.462 3.258-3.26 1.142 2.882-.355 5.26-3.258 5.26z"/><linearGradient id="b" gradientUnits="userSpaceOnUse" x1="19" y1="45.989" x2="19" y2="40.73" gradientTransform="matrix(1 0 0 -1 0 55.742)"><stop offset="0" stop-color="#CBCBCB"/><stop offset=".175" stop-color="#D8D8D8"/><stop offset="1" stop-color="#EBEBEB"/></linearGradient><path fill="url(#b)" d="M30.358 15c-2.36 0-16.43-1.52-26.358-2.627v-1.257C13.473 11.924 26.77 13 30.358 13c1.796 0 3.258-1.462 3.258-3.26 1.142 2.882-.355 5.26-3.258 5.26z"/><linearGradient id="c" gradientUnits="userSpaceOnUse" x1="17" y1="50.989" x2="17" y2="45.73" gradientTransform="matrix(1 0 0 -1 0 55.742)"><stop offset="0" stop-color="#CBCBCB"/><stop offset=".175" stop-color="#D8D8D8"/><stop offset="1" stop-color="#EBEBEB"/></linearGradient><path fill="url(#c)" d="M28.358 10C25.998 10 11.928 8.48 2 7.373V6.116C11.473 6.924 24.77 8 28.358 8c1.796 0 3.258-1.462 3.258-3.26C32.758 7.623 31.26 10 28.358 10z"/><linearGradient id="d" gradientUnits="userSpaceOnUse" x1="15" y1="55.73" x2="15" y2="50.472" gradientTransform="matrix(1 0 0 -1 0 55.742)"><stop offset="0" stop-color="#CBCBCB"/><stop offset=".175" stop-color="#D8D8D8"/><stop offset="1" stop-color="#EBEBEB"/></linearGradient><path fill="url(#d)" d="M26.358 5.26C23.998 5.26 9.928 3.737 0 2.63V1.375c9.473.808 22.77 1.884 26.358 1.884 1.796 0 3.258-1.463 3.258-3.26 1.142 2.88-.355 5.26-3.258 5.26z"/><path opacity=".2" fill="#FFC600" d="M27.722 16.862c-.438.438-1.148.438-1.585 0-.437-.438-.437-1.147 0-1.585l2.59-2.59c.437-.44 1.147-.44 1.586 0 .438.437.438 1.146 0 1.583l-2.59 2.592zM19 32.05c-4.44 0-8.05-3.61-8.05-8.05 0-4.438 3.61-8.05 8.05-8.05 4.437 0 8.05 3.612 8.05 8.05 0 4.44-3.612 8.05-8.05 8.05zm-8.723-15.188L7.684 14.27c-.438-.438-.438-1.147 0-1.584.44-.438 1.15-.438 1.587 0l2.592 2.59c.438.44.438 1.148 0 1.586-.437.44-1.147.44-1.585 0zm0 14.277c.44-.44 1.15-.44 1.587 0 .438.437.438 1.145 0 1.584l-2.59 2.592c-.44.438-1.148.438-1.587 0-.437-.437-.437-1.15 0-1.587l2.59-2.59zm17.447-.005l2.59 2.594c.44.437.44 1.145 0 1.584-.438.438-1.146.438-1.586 0l-2.59-2.59c-.438-.438-.438-1.147 0-1.59.437-.437 1.145-.437 1.586 0zm-7.805-18.35c0 .62-.39 1.123-1.006 1.123-.62 0-1.006-.502-1.006-1.122V9.122c0-.62.386-1.122 1.006-1.122.618 0 1.005.502 1.005 1.122v3.664zM7.785 24.92H4.12c-.618 0-1.12-.386-1.12-1.005 0-.62.502-1.005 1.12-1.005h3.666c.62 0 1.12.384 1.12 1.005 0 .62-.5 1.005-1.12 1.005zm10.122 10.296c0-.618.386-1.122 1.006-1.12.618 0 1.005.502 1.005 1.12v3.664c0 .618-.39 1.122-1.006 1.122-.62 0-1.006-.504-1.006-1.122v-3.664zm12.305-12.306h3.666c.617 0 1.12.384 1.12 1.005 0 .62-.503 1.005-1.12 1.005h-3.667c-.618 0-1.12-.386-1.12-1.005 0-.62.5-1.005 1.12-1.005z"/></svg>