<svg xmlns="http://www.w3.org/2000/svg" width="40" height="40" viewBox="0 0 40 40"><path fill="#FFC600" d="M27.72 8.862c-.437.438-1.146.438-1.584 0s-.438-1.147 0-1.585l2.59-2.59c.44-.44 1.15-.44 1.586 0 .44.437.44 1.146 0 1.584l-2.59 2.592zM19 24.05c-4.44 0-8.05-3.613-8.05-8.05 0-4.438 3.61-8.05 8.05-8.05 4.437 0 8.05 3.612 8.05 8.05 0 4.437-3.612 8.05-8.05 8.05zM10.276 8.862l-2.592-2.59c-.438-.44-.438-1.148 0-1.586s1.148-.438 1.586 0l2.592 2.59c.438.44.438 1.148 0 1.586-.437.438-1.148.438-1.585 0zm0 14.275c.44-.44 1.15-.438 1.587 0s.438 1.146 0 1.584l-2.59 2.594c-.44.438-1.15.438-1.586 0-.438-.438-.438-1.146 0-1.587l2.59-2.59zm17.444-.002l2.592 2.592c.44.438.44 1.146 0 1.584-.437.44-1.146.44-1.585 0l-2.59-2.59c-.44-.437-.44-1.147 0-1.585.438-.438 1.146-.438 1.584 0zM19.92 4.785c0 .62-.387 1.122-1.006 1.122-.62 0-1.005-.502-1.005-1.12V1.12c0-.62.387-1.122 1.005-1.122s1.006.502 1.006 1.122v3.664zM7.786 16.92H4.12c-.618 0-1.12-.39-1.12-1.006 0-.622.502-1.006 1.12-1.006h3.666c.62 0 1.12.384 1.12 1.006 0 .617-.5 1.005-1.12 1.005zm22.428-2.012h3.663c.62 0 1.123.384 1.123 1.006 0 .618-.502 1.005-1.123 1.005h-3.663c-.62 0-1.122-.39-1.122-1.006 0-.622.5-1.006 1.122-1.006z"/><linearGradient id="a" gradientUnits="userSpaceOnUse" x1="38.541" y1="-33.037" x2="38.541" y2="-32.028" gradientTransform="matrix(27.28 0 0 -16.564 -1027.906 -519.267)"><stop offset="0" stop-color="#CBCBCB"/><stop offset=".75" stop-color="#D8D8D8"/><stop offset="1" stop-color="#E1E1E1"/></linearGradient><path fill="url(#a)" d="M31.43 14.198c-.626 0-1.224.102-1.788.284-1.523-1.94-3.88-3.19-6.532-3.19-2.524 0-4.785 1.134-6.31 2.917-.07-.003-.137-.01-.208-.01-3.795 0-6.87 2.92-6.87 6.528 0 3.607 3.075 6.53 6.87 6.53.825 0 1.614-.145 2.347-.397 1.226.718 2.647 1.134 4.17 1.134 2.39 0 4.54-1.02 6.062-2.64.693.298 1.457.462 2.26.462 3.202 0 5.79-2.6 5.79-5.808-.003-3.212-2.593-5.81-5.792-5.81z"/><linearGradient id="b" gradientUnits="userSpaceOnUse" x1="578" y1="844.991" x2="578" y2="821.944" gradientTransform="translate(-559 -805)"><stop offset="0" stop-color="#CBCBCB"/><stop offset=".485" stop-color="#D8D8D8"/><stop offset="1" stop-color="#E1E1E1"/></linearGradient><path fill="url(#b)" d="M30 20.952c-.863 0-1.69.14-2.47.394-2.106-2.678-5.364-4.402-9.03-4.402-3.49 0-6.61 1.564-8.718 4.022-.097-.002-.19-.014-.288-.014C4.25 20.952 0 24.988 0 29.965c0 4.98 4.25 9.014 9.494 9.014 1.14 0 2.228-.202 3.24-.553 1.698.99 3.663 1.564 5.766 1.564 3.307 0 6.275-1.404 8.374-3.64.96.405 2.017.634 3.126.634 4.42 0 8-3.59 8-8.02 0-4.424-3.58-8.012-8-8.012z"/><path opacity=".2" fill="#FFC600" enable-background="new" d="M27.72 8.862c-.437.438-1.146.438-1.584 0s-.438-1.147 0-1.585l2.59-2.59c.44-.44 1.15-.44 1.586 0 .44.437.44 1.146 0 1.584l-2.59 2.592zM19 24.05c-4.44 0-8.05-3.613-8.05-8.05 0-4.438 3.61-8.05 8.05-8.05 4.437 0 8.05 3.612 8.05 8.05 0 4.437-3.612 8.05-8.05 8.05zM10.276 8.862l-2.592-2.59c-.438-.44-.438-1.148 0-1.586s1.148-.438 1.586 0l2.592 2.59c.438.44.438 1.148 0 1.586-.437.438-1.148.438-1.585 0zm0 14.275c.44-.44 1.15-.438 1.587 0s.438 1.146 0 1.584l-2.59 2.594c-.44.438-1.15.438-1.586 0-.438-.438-.438-1.146 0-1.587l2.59-2.59zm17.444-.002l2.592 2.592c.44.438.44 1.146 0 1.584-.437.44-1.146.44-1.585 0l-2.59-2.59c-.44-.437-.44-1.147 0-1.585.438-.438 1.146-.438 1.584 0zM19.92 4.785c0 .62-.387 1.122-1.006 1.122-.62 0-1.005-.502-1.005-1.12V1.12c0-.62.387-1.122 1.005-1.122s1.006.502 1.006 1.122v3.664zM7.786 16.92H4.12c-.618 0-1.12-.39-1.12-1.006 0-.622.502-1.006 1.12-1.006h3.666c.62 0 1.12.384 1.12 1.006 0 .617-.5 1.005-1.12 1.005zm22.428-2.012h3.663c.62 0 1.123.384 1.123 1.006 0 .618-.502 1.005-1.123 1.005h-3.663c-.62 0-1.122-.39-1.122-1.006 0-.622.5-1.006 1.122-1.006z"/><path fill="#93B9BA" d="M23.248 30.062l-2.516 1.455 2.516 1.455c.45.26.602.836.344 1.286-.26.45-.834.604-1.285.345l-2.514-1.455v2.91c0 .52-.422.94-.94.94-.52 0-.94-.42-.94-.94v-2.91L15.4 34.603c-.45.263-1.026.105-1.285-.345-.26-.45-.106-1.026.344-1.286l2.513-1.455-2.514-1.455c-.453-.258-.606-.836-.345-1.285.26-.45.834-.604 1.284-.346l2.513 1.455v-2.907c-.002-.52.42-.943.94-.942.518 0 .94.42.94.942v2.907l2.514-1.454c.45-.26 1.025-.103 1.285.345.26.452.105 1.028-.344 1.287z"/><path fill="#68B9D8" d="M31.284 32.22c-1.438 0-2.604-1.17-2.604-2.612 0-1.44 1.385-3.1 2.604-4.696 1.155 1.647 2.604 3.257 2.604 4.696 0 1.442-1.165 2.61-2.604 2.61z"/></svg>