<?xml version="1.0" encoding="UTF-8" standalone="no"?>
<svg
   xmlns:dc="http://purl.org/dc/elements/1.1/"
   xmlns:cc="http://creativecommons.org/ns#"
   xmlns:rdf="http://www.w3.org/1999/02/22-rdf-syntax-ns#"
   xmlns:svg="http://www.w3.org/2000/svg"
   xmlns="http://www.w3.org/2000/svg"
   xmlns:xlink="http://www.w3.org/1999/xlink"
   xmlns:sodipodi="http://sodipodi.sourceforge.net/DTD/sodipodi-0.dtd"
   xmlns:inkscape="http://www.inkscape.org/namespaces/inkscape"
   width="86"
   height="86"
   viewBox="0 0 86 86"
   version="1.1"
   id="svg24"
   sodipodi:docname="meteoswiss.svg"
   inkscape:version="0.92.3 (2405546, 2018-03-11)"
   inkscape:export-filename="/home/mirian/mounts/handy/Devel/meteoswiss/meteoswiss.png"
   inkscape:export-xdpi="96"
   inkscape:export-ydpi="96">
  <metadata
     id="metadata30">
    <rdf:RDF>
      <cc:Work
         rdf:about="">
        <dc:format>image/svg+xml</dc:format>
        <dc:type
           rdf:resource="http://purl.org/dc/dcmitype/StillImage" />
        <dc:title></dc:title>
      </cc:Work>
    </rdf:RDF>
  </metadata>
  <defs
     id="defs28">
    <linearGradient
       inkscape:collect="always"
       id="linearGradient876">
      <stop
         style="stop-color:#0087b6;stop-opacity:1"
         offset="0"
         id="stop872" />
      <stop
         style="stop-color:#6a87df;stop-opacity:0"
         offset="1"
         id="stop874" />
    </linearGradient>
    <linearGradient
       inkscape:collect="always"
       xlink:href="#linearGradient876"
       id="linearGradient878"
       x1="85.899345"
       y1="85.899345"
       x2="-15.250454"
       y2="-15.415517"
       gradientUnits="userSpaceOnUse"
       gradientTransform="matrix(1.0011787,0,0,1.0011787,-0.05068295,-0.05068195)" />
  </defs>
  <sodipodi:namedview
     pagecolor="#ffffff"
     bordercolor="#666666"
     borderopacity="1"
     objecttolerance="10"
     gridtolerance="10"
     guidetolerance="10"
     inkscape:pageopacity="0"
     inkscape:pageshadow="2"
     inkscape:window-width="1600"
     inkscape:window-height="835"
     id="namedview26"
     showgrid="false"
     inkscape:zoom="5.2457457"
     inkscape:cx="32.108652"
     inkscape:cy="51.975881"
     inkscape:window-x="0"
     inkscape:window-y="0"
     inkscape:window-maximized="1"
     inkscape:current-layer="svg24"
     showguides="true"
     inkscape:guide-bbox="true" />
  <linearGradient
     id="a"
     gradientUnits="userSpaceOnUse"
     x1="39.022999"
     y1="-32.506001"
     x2="39.022999"
     y2="-31.497999"
     gradientTransform="matrix(27.28,0,0,-16.564,-1009.047,-487.479)">
    <stop
       offset="0"
       stop-color="#CBCBCB"
       id="stop4" />
    <stop
       offset=".75"
       stop-color="#D8D8D8"
       id="stop6" />
    <stop
       offset="1"
       stop-color="#E1E1E1"
       id="stop8" />
  </linearGradient>
  <linearGradient
     id="b"
     gradientUnits="userSpaceOnUse"
     x1="578"
     y1="844.99103"
     x2="578"
     y2="821.94397"
     gradientTransform="translate(-539,-781.995)">
    <stop
       offset="0"
       stop-color="#CBCBCB"
       id="stop13" />
    <stop
       offset=".485"
       stop-color="#D8D8D8"
       id="stop15" />
    <stop
       offset="1"
       stop-color="#E1E1E1"
       id="stop17" />
  </linearGradient>
  <path
     sodipodi:nodetypes="ccc"
     inkscape:connector-curvature="0"
     id="path880"
     d="M 0.05008829,0.05008902 C 0.1004446,86.000268 -2.6702415e-4,85.899556 85.949912,85.949913 85.899556,-2.6760024e-4 86.000268,0.10044545 0.05008829,0.05008902 Z"
     style="fill:#9be5ff;fill-opacity:1;fill-rule:evenodd;stroke:#ffffff;stroke-width:0.10011787;stroke-linecap:butt;stroke-linejoin:miter;stroke-miterlimit:4;stroke-dasharray:none;stroke-opacity:1" />
  <path
     style="fill:url(#linearGradient878);fill-opacity:1;fill-rule:evenodd;stroke:#736eff;stroke-width:0.10011787;stroke-linecap:butt;stroke-linejoin:miter;stroke-miterlimit:4;stroke-dasharray:none;stroke-opacity:1"
     d="M 0.05008829,0.05008902 C 0.1004446,86.000268 -2.6702415e-4,85.899556 85.949912,85.949913 85.899556,-2.6760024e-4 86.000268,0.10044545 0.05008829,0.05008902 Z"
     id="path860"
     inkscape:connector-curvature="0"
     sodipodi:nodetypes="ccc" />
  <g
     id="g850"
     transform="matrix(1.2647309,0,0,1.2647309,-13.420278,-11.383429)">
    <path
       style="fill:#ffc600"
       inkscape:connector-curvature="0"
       id="path2"
       d="m 51.72,31.867 c -0.437,0.438 -1.146,0.438 -1.584,0 -0.438,-0.438 -0.438,-1.147 0,-1.586 l 2.59,-2.59 c 0.44,-0.438 1.15,-0.438 1.586,0 0.44,0.438 0.44,1.147 0,1.585 l -2.59,2.592 z M 43,47.057 c -4.44,0 -8.05,-3.614 -8.05,-8.052 0,-4.438 3.61,-8.05 8.05,-8.05 4.437,0 8.05,3.612 8.05,8.05 0,4.438 -3.612,8.05 -8.05,8.05 z m -8.724,-15.192 -2.592,-2.59 c -0.438,-0.44 -0.438,-1.148 0,-1.586 0.438,-0.438 1.148,-0.438 1.586,0 l 2.592,2.59 c 0.438,0.438 0.438,1.147 0,1.586 -0.437,0.438 -1.148,0.438 -1.585,0 z m 0,14.276 c 0.44,-0.44 1.15,-0.438 1.587,0 0.437,0.438 0.438,1.146 0,1.584 l -2.59,2.593 c -0.44,0.438 -1.15,0.438 -1.586,0 -0.438,-0.438 -0.438,-1.146 0,-1.587 l 2.59,-2.59 z m 17.444,-0.002 2.592,2.592 c 0.44,0.438 0.44,1.146 0,1.584 -0.437,0.438 -1.146,0.438 -1.585,0 l -2.59,-2.59 c -0.44,-0.438 -0.44,-1.148 0,-1.586 0.438,-0.438 1.146,-0.438 1.584,0 z m -7.8,-18.348 c 0,0.62 -0.387,1.12 -1.006,1.12 -0.62,0 -1.005,-0.5 -1.005,-1.12 v -3.664 c 0,-0.62 0.387,-1.122 1.005,-1.122 0.618,0 1.006,0.502 1.006,1.122 z M 31.786,39.925 H 28.12 c -0.618,0 -1.12,-0.388 -1.12,-1.006 0,-0.622 0.502,-1.006 1.12,-1.006 h 3.666 c 0.62,0 1.12,0.384 1.12,1.006 0,0.618 -0.5,1.005 -1.12,1.005 z m 10.12,10.294 c 0,-0.62 0.388,-1.123 1.006,-1.12 0.62,0 1.006,0.5 1.006,1.12 v 3.665 c 0,0.616 -0.387,1.12 -1.006,1.12 -0.62,0 -1.005,-0.504 -1.005,-1.12 V 50.218 Z M 54.214,37.913 h 3.663 c 0.62,0 1.123,0.384 1.123,1.006 0,0.618 -0.502,1.005 -1.123,1.005 h -3.663 c -0.62,0 -1.122,-0.39 -1.122,-1.006 0,-0.622 0.5,-1.006 1.122,-1.006 z" />
    <path
       style="fill:url(#a)"
       inkscape:connector-curvature="0"
       id="path11"
       d="m 63.43,37.203 c -0.626,0 -1.224,0.102 -1.788,0.284 -1.523,-1.94 -3.88,-3.19 -6.532,-3.19 -2.524,0 -4.785,1.134 -6.31,2.917 -0.07,-0.003 -0.137,-0.01 -0.208,-0.01 -3.795,0 -6.87,2.92 -6.87,6.528 0,3.607 3.075,6.53 6.87,6.53 0.825,0 1.614,-0.145 2.347,-0.397 1.226,0.718 2.647,1.134 4.17,1.134 2.39,0 4.54,-1.02 6.062,-2.64 0.693,0.298 1.457,0.462 2.26,0.462 3.202,0 5.79,-2.6 5.79,-5.808 -0.003,-3.212 -2.593,-5.81 -5.792,-5.81 z" />
    <path
       style="fill:url(#b)"
       inkscape:connector-curvature="0"
       id="path20"
       d="m 50,43.957 c -0.863,0 -1.69,0.14 -2.47,0.394 -2.106,-2.678 -5.364,-4.402 -9.03,-4.402 -3.49,0 -6.61,1.564 -8.718,4.022 -0.097,-0.002 -0.19,-0.014 -0.288,-0.014 -5.244,0 -9.494,4.036 -9.494,9.013 0,4.98 4.25,9.014 9.494,9.014 1.14,0 2.228,-0.202 3.24,-0.553 1.698,0.99 3.663,1.564 5.766,1.564 3.307,0 6.275,-1.404 8.374,-3.64 0.96,0.405 2.017,0.634 3.126,0.634 4.42,0 8,-3.59 8,-8.02 0,-4.424 -3.58,-8.012 -8,-8.012 z" />
    <path
       style="opacity:0.2;fill:#ffc600;enable-background:new"
       inkscape:connector-curvature="0"
       id="path22"
       d="m 51.72,31.867 c -0.437,0.438 -1.146,0.438 -1.584,0 -0.438,-0.438 -0.438,-1.147 0,-1.586 l 2.59,-2.59 c 0.44,-0.438 1.15,-0.438 1.586,0 0.44,0.438 0.44,1.147 0,1.585 l -2.59,2.592 z M 43,47.057 c -4.44,0 -8.05,-3.614 -8.05,-8.052 0,-4.438 3.61,-8.05 8.05,-8.05 4.437,0 8.05,3.612 8.05,8.05 0,4.438 -3.612,8.05 -8.05,8.05 z m -8.724,-15.192 -2.592,-2.59 c -0.438,-0.44 -0.438,-1.148 0,-1.586 0.438,-0.438 1.148,-0.438 1.586,0 l 2.592,2.59 c 0.438,0.438 0.438,1.147 0,1.586 -0.437,0.438 -1.148,0.438 -1.585,0 z m 0,14.276 c 0.44,-0.44 1.15,-0.438 1.587,0 0.437,0.438 0.438,1.146 0,1.584 l -2.59,2.593 c -0.44,0.438 -1.15,0.438 -1.586,0 -0.438,-0.438 -0.438,-1.146 0,-1.587 l 2.59,-2.59 z m 17.444,-0.002 2.592,2.592 c 0.44,0.438 0.44,1.146 0,1.584 -0.437,0.438 -1.146,0.438 -1.585,0 l -2.59,-2.59 c -0.44,-0.438 -0.44,-1.148 0,-1.586 0.438,-0.438 1.146,-0.438 1.584,0 z m -7.8,-18.348 c 0,0.62 -0.387,1.12 -1.006,1.12 -0.62,0 -1.005,-0.5 -1.005,-1.12 v -3.664 c 0,-0.62 0.387,-1.122 1.005,-1.122 0.618,0 1.006,0.502 1.006,1.122 z M 31.786,39.925 H 28.12 c -0.618,0 -1.12,-0.388 -1.12,-1.006 0,-0.622 0.502,-1.006 1.12,-1.006 h 3.666 c 0.62,0 1.12,0.384 1.12,1.006 0,0.618 -0.5,1.005 -1.12,1.005 z m 10.12,10.294 c 0,-0.62 0.388,-1.123 1.006,-1.12 0.62,0 1.006,0.5 1.006,1.12 v 3.665 c 0,0.616 -0.387,1.12 -1.006,1.12 -0.62,0 -1.005,-0.504 -1.005,-1.12 V 50.218 Z M 54.214,37.913 h 3.663 c 0.62,0 1.123,0.384 1.123,1.006 0,0.618 -0.502,1.005 -1.123,1.005 h -3.663 c -0.62,0 -1.122,-0.39 -1.122,-1.006 0,-0.622 0.5,-1.006 1.122,-1.006 z" />
  </g>
</svg>
