<svg xmlns="http://www.w3.org/2000/svg" width="40" height="40" viewBox="0 0 40 40"><path fill="#FFC600" d="M27.72 12.862c-.437.438-1.146.438-1.584 0-.438-.438-.438-1.147 0-1.586l2.59-2.59c.44-.438 1.15-.438 1.586 0 .44.438.44 1.147 0 1.585l-2.59 2.592zM19 28.052c-4.44 0-8.05-3.614-8.05-8.052s3.61-8.05 8.05-8.05c4.437 0 8.05 3.612 8.05 8.05 0 4.438-3.612 8.05-8.05 8.05zm-8.723-15.19l-2.592-2.59c-.438-.44-.438-1.148 0-1.586.438-.438 1.148-.438 1.586 0l2.592 2.59c.438.438.438 1.147 0 1.586-.437.438-1.148.438-1.585 0zm0 14.276c.44-.44 1.15-.438 1.587 0s.438 1.146 0 1.584l-2.59 2.593c-.44.438-1.15.438-1.586 0-.438-.438-.438-1.146 0-1.587l2.59-2.59zm17.444-.002l2.592 2.592c.44.438.44 1.146 0 1.584-.437.438-1.146.438-1.585 0l-2.59-2.59c-.44-.438-.44-1.148 0-1.586.438-.438 1.146-.438 1.584 0zM19.92 8.786c0 .62-.387 1.12-1.006 1.12-.62 0-1.005-.5-1.005-1.12V5.122c0-.62.387-1.122 1.005-1.122s1.006.502 1.006 1.122v3.664zM7.786 20.92H4.12c-.618 0-1.12-.39-1.12-1.006 0-.622.502-1.006 1.12-1.006h3.666c.62 0 1.12.384 1.12 1.006 0 .617-.5 1.005-1.12 1.005zm10.12 10.294c0-.62.388-1.123 1.006-1.12.62 0 1.006.5 1.006 1.12v3.665c0 .616-.387 1.12-1.006 1.12-.62 0-1.005-.504-1.005-1.12v-3.666zm12.308-12.306h3.663c.62 0 1.123.384 1.123 1.006 0 .617-.502 1.005-1.123 1.005h-3.663c-.62 0-1.122-.39-1.122-1.006 0-.622.5-1.006 1.122-1.006z"/></svg>