<svg xmlns="http://www.w3.org/2000/svg" width="40" height="40" viewBox="0 0 40 40"><linearGradient id="a" gradientUnits="userSpaceOnUse" x1="25.331" y1="53.144" x2="25.331" y2="52.136" gradientTransform="matrix(27.28 0 0 16.564 -667.563 -863.609)"><stop offset="0" stop-color="#888"/><stop offset="1" stop-color="#BEBEBE"/></linearGradient><path fill="url(#a)" d="M31.43 2.906c-.626 0-1.224.102-1.788.284C28.118 1.25 25.762 0 23.108 0c-2.524 0-4.785 1.133-6.31 2.916-.07-.002-.137-.01-.208-.01-3.795 0-6.87 2.922-6.87 6.53 0 3.606 3.075 6.53 6.87 6.53.825 0 1.613-.146 2.346-.4 1.228.718 2.648 1.134 4.172 1.134 2.39 0 4.54-1.02 6.06-2.64.695.298 1.46.462 2.263.462 3.2 0 5.79-2.6 5.79-5.807 0-3.21-2.59-5.81-5.79-5.81z"/><linearGradient id="b" gradientUnits="userSpaceOnUse" x1="19.592" y1="39.742" x2="19.592" y2="38.742" gradientTransform="matrix(38 0 0 23.047 -725.5 -887.266)"><stop offset="0" stop-color="#888"/><stop offset="1" stop-color="#BEBEBE"/></linearGradient><path fill="url(#b)" d="M30 9.66c-.863 0-1.69.14-2.47.394-2.106-2.678-5.364-4.402-9.03-4.402-3.49 0-6.61 1.564-8.718 4.022-.097-.002-.19-.014-.288-.014C4.25 9.66 0 13.696 0 18.673c0 4.98 4.25 9.014 9.494 9.014 1.14 0 2.228-.2 3.24-.552 1.698.99 3.663 1.564 5.766 1.564 3.307 0 6.275-1.406 8.374-3.643.96.407 2.017.635 3.126.635 4.42 0 8-3.59 8-8.018 0-4.426-3.58-8.014-8-8.014z"/><path fill="#D3E6EB" d="M23.248 20.062l-2.516 1.455 2.516 1.455c.45.26.602.836.344 1.286-.26.45-.834.604-1.285.345l-2.514-1.455v2.91c0 .52-.422.94-.94.94-.52 0-.94-.42-.94-.94v-2.91L15.4 24.603c-.45.263-1.026.105-1.285-.345-.26-.45-.106-1.026.344-1.286l2.513-1.455-2.514-1.455c-.453-.258-.606-.836-.345-1.285.26-.45.834-.604 1.284-.346l2.513 1.455v-2.907c-.002-.52.42-.943.94-.942.518 0 .94.42.94.942v2.907l2.514-1.454c.45-.26 1.025-.103 1.285.345.26.452.105 1.028-.344 1.287zM10.724 20.054l-2.003.426 1.372 1.525c.246.273.223.693-.05.94-.272.245-.69.224-.936-.05l-1.37-1.525-.634 1.952c-.113.35-.487.54-.836.428-.348-.114-.54-.488-.424-.838l.633-1.953-2.005.425c-.36.08-.71-.15-.788-.51-.075-.36.154-.713.51-.79L6.2 19.66l-1.37-1.527c-.246-.27-.225-.693.048-.938.272-.244.69-.223.936.05l1.372 1.524.633-1.952c.113-.352.487-.54.835-.428.35.113.54.487.426.838l-.633 1.953 2.004-.426c.357-.078.71.153.786.51.077.362-.15.715-.512.79z"/><path fill="#B5CDD2" d="M23.248 33.063l-2.516 1.455 2.516 1.455c.45.26.602.836.344 1.286-.26.45-.834.603-1.285.344l-2.514-1.455v2.91c0 .52-.422.94-.94.94-.52 0-.94-.422-.94-.94v-2.91L15.4 37.603c-.45.263-1.026.105-1.285-.345-.26-.45-.106-1.027.344-1.287l2.513-1.455-2.514-1.455c-.453-.258-.606-.836-.345-1.285.26-.45.834-.604 1.284-.346l2.513 1.454V29.98c-.002-.522.42-.944.94-.943.518 0 .94.42.94.942v2.906l2.514-1.454c.45-.26 1.025-.104 1.285.344.26.452.105 1.028-.344 1.287zM10.724 33.055l-2.003.427 1.372 1.525c.246.273.223.693-.05.94-.272.245-.69.224-.936-.05l-1.37-1.526-.634 1.953c-.113.35-.487.54-.836.428-.348-.113-.54-.487-.424-.837l.633-1.953-2.005.426c-.36.08-.71-.15-.788-.51-.075-.36.154-.713.51-.79L6.2 32.66l-1.37-1.526c-.246-.27-.225-.693.048-.938.272-.244.69-.223.936.05l1.372 1.524.633-1.95c.113-.353.487-.542.835-.43.35.114.54.488.426.84l-.633 1.952 2.004-.427c.357-.078.71.153.786.51.077.362-.15.714-.512.79z"/></svg>