<svg xmlns="http://www.w3.org/2000/svg" width="40" height="40" viewBox="0 0 40 40"><path fill="#FFE958" d="M19.064 7c.92 2.022 1.445 4.26 1.445 6.624 0 7.624-5.34 13.997-12.5 15.665 2.374 2.31 5.62 3.74 9.207 3.74 7.273 0 13.17-5.86 13.17-13.087 0-6.603-4.928-12.05-11.323-12.943z"/><linearGradient id="a" gradientUnits="userSpaceOnUse" x1="19" y1="40" x2="19" y2="23"><stop offset="0" stop-color="#CBCBCB"/><stop offset=".485" stop-color="#D8D8D8"/><stop offset="1" stop-color="#E1E1E1"/></linearGradient><path fill-rule="evenodd" clip-rule="evenodd" fill="url(#a)" d="M1 25c-.618.002-1-.396-1-1.012C0 23.373.383 23 1 23h36c.615 0 1 .373 1 .988 0 .616-.385 1.012-1 1.012H1zm0 3c-.618.002-1-.396-1-1.012C0 26.373.383 26 1 26h36c.615 0 1 .373 1 .988 0 .616-.385 1.012-1 1.012H1zm0 3c-.618.002-1-.396-1-1.012C0 29.373.383 29 1 29h36c.615 0 1 .373 1 .988 0 .616-.385 1.012-1 1.012H1zm0 3c-.618.002-1-.396-1-1.012C0 32.373.383 32 1 32h36c.615 0 1 .373 1 .988 0 .616-.385 1.012-1 1.012H1zm0 3c-.618.002-1-.396-1-1.012C0 35.373.383 35 1 35h36c.615 0 1 .373 1 .988 0 .616-.385 1.012-1 1.012H1zm0 3c-.618.002-1-.396-1-1.012C0 38.373.383 38 1 38h36c.615 0 1 .373 1 .988 0 .616-.385 1.012-1 1.012H1z"/><path opacity=".4" fill="#FFE958" enable-background="new" d="M19.064 7c.92 2.022 1.445 4.26 1.445 6.624 0 7.624-5.34 13.997-12.5 15.665 2.374 2.31 5.62 3.74 9.207 3.74 7.273 0 13.17-5.86 13.17-13.087 0-6.603-4.928-12.05-11.323-12.943z"/></svg>