<svg xmlns="http://www.w3.org/2000/svg" width="40" height="40" viewBox="0 0 40 40"><linearGradient id="a" gradientUnits="userSpaceOnUse" x1="19" y1="22" x2="19" y2="5"><stop offset="0" stop-color="#CBCBCB"/><stop offset=".485" stop-color="#D8D8D8"/><stop offset="1" stop-color="#E1E1E1"/></linearGradient><path fill-rule="evenodd" clip-rule="evenodd" fill="url(#a)" d="M1 7c-.618.002-1-.396-1-1.012C0 5.373.383 5 1 5h36c.615 0 1 .373 1 .988C38 6.605 37.614 7 37 7H1zm0 3c-.618.002-1-.396-1-1.012C0 8.373.383 8 1 8h36c.615 0 1 .373 1 .988C38 9.605 37.614 10 37 10H1zm0 3c-.618.002-1-.396-1-1.012C0 11.373.383 11 1 11h36c.615 0 1 .373 1 .988 0 .617-.385 1.012-1 1.012H1zm0 3c-.618.002-1-.396-1-1.012C0 14.373.383 14 1 14h36c.615 0 1 .373 1 .988 0 .617-.385 1.012-1 1.012H1zm0 3c-.618.002-1-.396-1-1.012C0 17.373.383 17 1 17h36c.615 0 1 .373 1 .988 0 .616-.385 1.012-1 1.012H1zm0 3c-.618.002-1-.396-1-1.012C0 20.373.383 20 1 20h36c.615 0 1 .373 1 .988 0 .616-.385 1.012-1 1.012H1z"/><linearGradient id="b" gradientUnits="userSpaceOnUse" x1="19" y1="40" x2="19" y2="23"><stop offset="0" stop-color="#CBCBCB"/><stop offset=".485" stop-color="#D8D8D8"/><stop offset="1" stop-color="#E1E1E1"/></linearGradient><path fill-rule="evenodd" clip-rule="evenodd" fill="url(#b)" d="M1 25c-.618.002-1-.396-1-1.012C0 23.373.383 23 1 23h36c.615 0 1 .373 1 .988 0 .616-.385 1.012-1 1.012H1zm0 3c-.618.002-1-.396-1-1.012C0 26.373.383 26 1 26h36c.615 0 1 .373 1 .988 0 .616-.385 1.012-1 1.012H1zm0 3c-.618.002-1-.396-1-1.012C0 29.373.383 29 1 29h36c.615 0 1 .373 1 .988 0 .616-.385 1.012-1 1.012H1zm0 3c-.618.002-1-.396-1-1.012C0 32.373.383 32 1 32h36c.615 0 1 .373 1 .988 0 .616-.385 1.012-1 1.012H1zm0 3c-.618.002-1-.396-1-1.012C0 35.373.383 35 1 35h36c.615 0 1 .373 1 .988 0 .616-.385 1.012-1 1.012H1zm0 3c-.618.002-1-.396-1-1.012C0 38.373.383 38 1 38h36c.615 0 1 .373 1 .988 0 .616-.385 1.012-1 1.012H1z"/></svg>