<svg xmlns="http://www.w3.org/2000/svg" width="40" height="40" viewBox="0 0 40 40"><path fill="#FFE958" d="M19.064 0c.92 2.022 1.445 4.26 1.445 6.624 0 7.624-5.34 13.997-12.5 15.665 2.374 2.31 5.62 3.74 9.207 3.74 7.273 0 13.17-5.86 13.17-13.087C30.387 6.34 25.46.893 19.064 0z"/><linearGradient id="a" gradientUnits="userSpaceOnUse" x1="24.85" y1="53.355" x2="24.85" y2="52.348" gradientTransform="matrix(27.28 0 0 16.564 -654.421 -855.826)"><stop offset="0" stop-color="#888"/><stop offset="1" stop-color="#BEBEBE"/></linearGradient><path fill="url(#a)" d="M31.43 14.198c-.626 0-1.224.102-1.788.284-1.523-1.94-3.88-3.19-6.533-3.19-2.525 0-4.786 1.134-6.31 2.917-.07-.003-.138-.01-.21-.01-3.794 0-6.87 2.92-6.87 6.528 0 3.607 3.076 6.53 6.87 6.53.826 0 1.614-.145 2.347-.398 1.228.717 2.648 1.133 4.172 1.133 2.39 0 4.54-1.02 6.06-2.64.694.298 1.458.462 2.262.462 3.2 0 5.79-2.6 5.79-5.807-.003-3.212-2.593-5.81-5.792-5.81z"/><linearGradient id="b" gradientUnits="userSpaceOnUse" x1="19.105" y1="39.754" x2="19.105" y2="38.754" gradientTransform="matrix(38 0 0 23.047 -707 -876.247)"><stop offset="0" stop-color="#888"/><stop offset="1" stop-color="#BEBEBE"/></linearGradient><path fill="url(#b)" d="M30 20.952c-.863 0-1.69.14-2.47.394-2.106-2.678-5.364-4.402-9.03-4.402-3.49 0-6.61 1.564-8.718 4.022-.097-.002-.19-.014-.288-.014C4.25 20.952 0 24.988 0 29.965c0 4.98 4.25 9.014 9.494 9.014 1.14 0 2.228-.202 3.24-.553 1.698.99 3.663 1.564 5.766 1.564 3.307 0 6.275-1.404 8.374-3.64.96.406 2.017.634 3.126.634 4.42 0 8-3.59 8-8.018 0-4.426-3.58-8.014-8-8.014z"/><path opacity=".4" fill="#FFE958" enable-background="new" d="M19.064 0c.92 2.022 1.445 4.26 1.445 6.624 0 7.624-5.34 13.997-12.5 15.665 2.374 2.31 5.62 3.74 9.207 3.74 7.273 0 13.17-5.86 13.17-13.087C30.387 6.34 25.46.893 19.064 0z"/><path fill="#9CDEFF" d="M7.584 33.12c-1.43 0-2.588-1.145-2.588-2.56 0-1.416 1.375-3.04 2.588-4.607 1.147 1.615 2.587 3.193 2.587 4.607s-1.157 2.56-2.586 2.56zm23.7-.9c-1.438 0-2.604-1.17-2.604-2.612 0-1.44 1.385-3.1 2.604-4.696 1.155 1.647 2.604 3.257 2.604 4.696 0 1.442-1.165 2.61-2.604 2.61zm-12.336 4.96c-1.813 0-3.284-1.474-3.284-3.29 0-1.82 1.745-3.91 3.284-5.924 1.456 2.078 3.282 4.104 3.282 5.923 0 1.816-1.468 3.29-3.282 3.29z"/></svg>