<svg xmlns="http://www.w3.org/2000/svg" width="40" height="40" viewBox="-436 285.7 40 40" enable-background="new -436 285.7 40 40"><linearGradient id="a" gradientUnits="userSpaceOnUse" x1="-815.033" y1="667.365" x2="-815.033" y2="666.357" gradientTransform="matrix(27.28 0 0 16.564 21822.555 -10746.276)"><stop offset="0" stop-color="#CBCBCB"/><stop offset=".75" stop-color="#D8D8D8"/><stop offset="1" stop-color="#E1E1E1"/></linearGradient><path fill="url(#a)" d="M-403.6 294.2c-.6 0-1.2.1-1.8.3-1.5-1.9-3.9-3.2-6.5-3.2-2.5 0-4.8 1.1-6.3 2.9h-.2c-3.8 0-6.9 2.9-6.9 6.5s3.1 6.5 6.9 6.5c.8 0 1.6-.1 2.3-.4 1.2.7 2.6 1.1 4.2 1.1 2.4 0 4.5-1 6.1-2.6.7.3 1.5.5 2.3.5 3.2 0 5.8-2.6 5.8-5.8-.1-3.2-2.7-5.8-5.9-5.8z"/><linearGradient id="b" gradientUnits="userSpaceOnUse" x1="143" y1="-513.398" x2="143" y2="-490.351" gradientTransform="matrix(1 0 0 -1 -559 -193.398)"><stop offset="0" stop-color="#CBCBCB"/><stop offset=".485" stop-color="#D8D8D8"/><stop offset="1" stop-color="#E1E1E1"/></linearGradient><path fill="url(#b)" d="M-405 301c-.9 0-1.7.1-2.5.4-2.1-2.7-5.4-4.4-9-4.4-3.5 0-6.6 1.6-8.7 4h-.3c-5.2 0-9.5 4-9.5 9s4.2 9 9.5 9c1.1 0 2.2-.2 3.2-.6 1.7 1 3.7 1.6 5.8 1.6 3.3 0 6.3-1.4 8.4-3.6 1 .4 2 .6 3.1.6 4.4 0 8-3.6 8-8 0-4.5-3.6-8-8-8z"/></svg>