<svg xmlns="http://www.w3.org/2000/svg" width="40" height="40" viewBox="0 0 40 40"><path fill="#FFC600" d="M27.72 9.862c-.437.438-1.146.438-1.584 0-.438-.438-.438-1.147 0-1.586l2.59-2.59c.44-.438 1.15-.438 1.586 0 .44.438.44 1.147 0 1.585l-2.59 2.592zM19 25.052c-4.44 0-8.05-3.614-8.05-8.052S14.56 8.95 19 8.95c4.437 0 8.05 3.612 8.05 8.05 0 4.438-3.612 8.05-8.05 8.05zM10.276 9.86l-2.592-2.59c-.438-.44-.438-1.148 0-1.586.438-.438 1.148-.438 1.586 0l2.592 2.59c.438.438.438 1.147 0 1.586-.437.438-1.148.438-1.585 0zm0 14.276c.44-.44 1.15-.438 1.587 0s.438 1.146 0 1.584l-2.59 2.593c-.44.438-1.15.438-1.586 0-.438-.438-.438-1.146 0-1.587l2.59-2.59zm17.444-.002l2.592 2.592c.44.438.44 1.146 0 1.584-.437.438-1.146.438-1.585 0l-2.59-2.59c-.44-.438-.44-1.148 0-1.586.438-.438 1.146-.438 1.584 0zM19.92 5.786c0 .62-.387 1.12-1.006 1.12-.62 0-1.005-.5-1.005-1.12V2.122c0-.62.387-1.122 1.005-1.122s1.006.502 1.006 1.122v3.664zM7.786 17.92H4.12c-.618 0-1.12-.388-1.12-1.006 0-.622.502-1.006 1.12-1.006h3.666c.62 0 1.12.384 1.12 1.006 0 .618-.5 1.005-1.12 1.005zm10.12 10.294c0-.62.388-1.123 1.006-1.12.62 0 1.006.5 1.006 1.12v3.665c0 .616-.387 1.12-1.006 1.12-.62 0-1.005-.504-1.005-1.12v-3.666zm12.308-12.306h3.663c.62 0 1.123.384 1.123 1.006 0 .618-.502 1.005-1.123 1.005h-3.663c-.62 0-1.122-.39-1.122-1.006 0-.622.5-1.006 1.122-1.006z"/><linearGradient id="a" gradientUnits="userSpaceOnUse" x1="39.124" y1="-33.11" x2="39.124" y2="-32.102" gradientTransform="matrix(27.28 0 0 -16.564 -1041.047 -510.484)"><stop offset="0" stop-color="#CBCBCB"/><stop offset=".485" stop-color="#D8D8D8"/><stop offset="1" stop-color="#E1E1E1"/></linearGradient><path fill="url(#a)" d="M34.21 24.205c-.627 0-1.225.102-1.79.284-1.522-1.94-3.88-3.19-6.53-3.19-2.525 0-4.786 1.134-6.31 2.915-.07-.002-.138-.01-.21-.01-3.794 0-6.87 2.923-6.87 6.53 0 3.606 3.076 6.53 6.87 6.53.826 0 1.615-.146 2.347-.398C22.944 37.584 24.365 38 25.89 38c2.39 0 4.54-1.02 6.06-2.64.694.298 1.458.462 2.262.462 3.2 0 5.79-2.6 5.79-5.808-.004-3.21-2.594-5.81-5.793-5.81z"/><path opacity=".2" fill="#FFC600" enable-background="new" d="M27.72 9.862c-.437.438-1.146.438-1.584 0-.438-.438-.438-1.147 0-1.586l2.59-2.59c.44-.438 1.15-.438 1.586 0 .44.438.44 1.147 0 1.585l-2.59 2.592zM19 25.052c-4.44 0-8.05-3.614-8.05-8.052S14.56 8.95 19 8.95c4.437 0 8.05 3.612 8.05 8.05 0 4.438-3.612 8.05-8.05 8.05zM10.276 9.86l-2.592-2.59c-.438-.44-.438-1.148 0-1.586.438-.438 1.148-.438 1.586 0l2.592 2.59c.438.438.438 1.147 0 1.586-.437.438-1.148.438-1.585 0zm0 14.276c.44-.44 1.15-.438 1.587 0s.438 1.146 0 1.584l-2.59 2.593c-.44.438-1.15.438-1.586 0-.438-.438-.438-1.146 0-1.587l2.59-2.59zm17.444-.002l2.592 2.592c.44.438.44 1.146 0 1.584-.437.438-1.146.438-1.585 0l-2.59-2.59c-.44-.438-.44-1.148 0-1.586.438-.438 1.146-.438 1.584 0zM19.92 5.786c0 .62-.387 1.12-1.006 1.12-.62 0-1.005-.5-1.005-1.12V2.122c0-.62.387-1.122 1.005-1.122s1.006.502 1.006 1.122v3.664zM7.786 17.92H4.12c-.618 0-1.12-.388-1.12-1.006 0-.622.502-1.006 1.12-1.006h3.666c.62 0 1.12.384 1.12 1.006 0 .618-.5 1.005-1.12 1.005zm10.12 10.294c0-.62.388-1.123 1.006-1.12.62 0 1.006.5 1.006 1.12v3.665c0 .616-.387 1.12-1.006 1.12-.62 0-1.005-.504-1.005-1.12v-3.666zm12.308-12.306h3.663c.62 0 1.123.384 1.123 1.006 0 .618-.502 1.005-1.123 1.005h-3.663c-.62 0-1.122-.39-1.122-1.006 0-.622.5-1.006 1.122-1.006z"/></svg>