<svg xmlns="http://www.w3.org/2000/svg" width="40" height="40" viewBox="0 0 40 40"><path fill="#FFC600" d="M27.722 12.862c-.438.438-1.147.438-1.584 0-.438-.438-.438-1.147 0-1.585l2.59-2.59c.437-.44 1.146-.44 1.586 0 .438.437.438 1.146 0 1.583l-2.592 2.592zM19 28.05c-4.438 0-8.05-3.61-8.05-8.05 0-4.438 3.61-8.05 8.05-8.05 4.437 0 8.05 3.612 8.05 8.05 0 4.44-3.612 8.05-8.05 8.05zm-8.723-15.188L7.684 10.27c-.437-.438-.437-1.147 0-1.584.44-.438 1.15-.438 1.588 0l2.59 2.59c.44.44.44 1.148 0 1.586-.436.44-1.147.44-1.585 0zm0 14.277c.44-.44 1.15-.44 1.587 0s.438 1.145 0 1.584l-2.59 2.592c-.44.438-1.148.438-1.588 0-.437-.437-.437-1.15 0-1.587l2.592-2.59zm17.447-.005l2.59 2.594c.44.437.44 1.145 0 1.584-.438.438-1.146.438-1.585 0l-2.592-2.59c-.438-.438-.438-1.147 0-1.59.438-.437 1.146-.437 1.586 0zM19.92 8.785c0 .62-.39 1.123-1.006 1.123-.62 0-1.006-.502-1.006-1.122V5.122c0-.62.386-1.122 1.006-1.122.617 0 1.005.502 1.005 1.122v3.664zM7.785 20.92H4.122c-.62 0-1.122-.386-1.122-1.005 0-.62.502-1.005 1.122-1.005h3.665c.62 0 1.12.384 1.12 1.005 0 .62-.5 1.005-1.12 1.005zm10.122 10.296c0-.618.386-1.122 1.006-1.12.617 0 1.005.502 1.005 1.12v3.664c0 .618-.39 1.122-1.006 1.122-.62 0-1.006-.504-1.006-1.122v-3.664zm12.306-12.306h3.666c.62 0 1.12.384 1.12 1.005 0 .62-.5 1.005-1.12 1.005h-3.666c-.618 0-1.12-.386-1.12-1.005 0-.62.5-1.005 1.12-1.005z"/><linearGradient id="a" gradientUnits="userSpaceOnUse" x1="19" y1="40" x2="19" y2="23"><stop offset="0" stop-color="#CBCBCB"/><stop offset=".485" stop-color="#D8D8D8"/><stop offset="1" stop-color="#E1E1E1"/></linearGradient><path fill-rule="evenodd" clip-rule="evenodd" fill="url(#a)" d="M1 25c-.618.002-1-.396-1-1.012C0 23.373.383 23 1 23h36c.615 0 1 .373 1 .988 0 .616-.385 1.012-1 1.012H1zm0 3c-.618.002-1-.396-1-1.012C0 26.373.383 26 1 26h36c.615 0 1 .373 1 .988 0 .616-.385 1.012-1 1.012H1zm0 3c-.618.002-1-.396-1-1.012C0 29.373.383 29 1 29h36c.615 0 1 .373 1 .988 0 .616-.385 1.012-1 1.012H1zm0 3c-.618.002-1-.396-1-1.012C0 32.373.383 32 1 32h36c.615 0 1 .373 1 .988 0 .616-.385 1.012-1 1.012H1zm0 3c-.618.002-1-.396-1-1.012C0 35.373.383 35 1 35h36c.615 0 1 .373 1 .988 0 .616-.385 1.012-1 1.012H1zm0 3c-.618.002-1-.396-1-1.012C0 38.373.383 38 1 38h36c.615 0 1 .373 1 .988 0 .616-.385 1.012-1 1.012H1z"/><path opacity=".2" fill="#FFC600" d="M27.722 12.862c-.438.438-1.148.438-1.585 0-.437-.438-.437-1.147 0-1.585l2.59-2.59c.437-.44 1.147-.44 1.586 0 .438.437.438 1.146 0 1.583l-2.59 2.592zM19 28.05c-4.44 0-8.05-3.61-8.05-8.05 0-4.438 3.61-8.05 8.05-8.05 4.437 0 8.05 3.612 8.05 8.05 0 4.44-3.612 8.05-8.05 8.05zm-8.723-15.188L7.684 10.27c-.438-.438-.438-1.147 0-1.584.44-.438 1.15-.438 1.587 0l2.592 2.59c.438.44.438 1.148 0 1.586-.437.44-1.147.44-1.585 0zm0 14.277c.44-.44 1.15-.44 1.587 0 .438.437.438 1.145 0 1.584l-2.59 2.592c-.44.438-1.148.438-1.587 0-.437-.437-.437-1.15 0-1.587l2.59-2.59zm17.447-.005l2.59 2.594c.44.437.44 1.145 0 1.584-.438.438-1.146.438-1.586 0l-2.59-2.59c-.438-.438-.438-1.147 0-1.59.437-.437 1.145-.437 1.586 0zM19.92 8.785c0 .62-.39 1.123-1.006 1.123-.62 0-1.006-.502-1.006-1.122V5.122c0-.62.386-1.122 1.006-1.122.618 0 1.005.502 1.005 1.122v3.664zM7.785 20.92H4.12c-.618 0-1.12-.386-1.12-1.005 0-.62.502-1.005 1.12-1.005h3.666c.62 0 1.12.384 1.12 1.005 0 .62-.5 1.005-1.12 1.005zm10.122 10.296c0-.618.386-1.122 1.006-1.12.618 0 1.005.502 1.005 1.12v3.664c0 .618-.39 1.122-1.006 1.122-.62 0-1.006-.504-1.006-1.122v-3.664zm12.305-12.306h3.666c.617 0 1.12.384 1.12 1.005 0 .62-.503 1.005-1.12 1.005h-3.667c-.618 0-1.12-.386-1.12-1.005 0-.62.5-1.005 1.12-1.005z"/></svg>