<svg xmlns="http://www.w3.org/2000/svg" width="40" height="40" viewBox="0 0 40 40"><path fill="#FFC600" d="M27.72 8.862c-.437.438-1.146.438-1.584 0s-.438-1.147 0-1.585l2.59-2.59c.44-.44 1.15-.44 1.586 0 .438.437.44 1.146 0 1.584l-2.59 2.592zM19 24.05c-4.44 0-8.05-3.613-8.05-8.05 0-4.438 3.61-8.05 8.05-8.05 4.437 0 8.05 3.612 8.05 8.05 0 4.437-3.612 8.05-8.05 8.05zM10.276 8.862l-2.592-2.59c-.438-.44-.438-1.148 0-1.586s1.148-.438 1.586 0l2.592 2.59c.438.44.438 1.148 0 1.586-.437.438-1.148.438-1.585 0zm0 14.275c.44-.44 1.15-.438 1.587 0s.438 1.146 0 1.584l-2.59 2.594c-.44.438-1.15.438-1.586 0-.438-.438-.438-1.147 0-1.587l2.59-2.59zm17.444-.002l2.592 2.592c.44.438.44 1.146 0 1.584-.437.44-1.146.44-1.585 0l-2.59-2.59c-.44-.437-.44-1.147 0-1.585.438-.438 1.146-.438 1.584 0zM19.92 4.785c0 .62-.387 1.122-1.006 1.122-.62 0-1.005-.502-1.005-1.12V1.12c0-.62.387-1.122 1.005-1.122s1.006.502 1.006 1.122v3.664zM7.786 16.92H4.12c-.618 0-1.12-.39-1.12-1.006 0-.622.502-1.006 1.12-1.006h3.666c.62 0 1.12.384 1.12 1.006 0 .617-.5 1.005-1.12 1.005zm22.428-2.012h3.663c.62 0 1.123.384 1.123 1.006 0 .618-.502 1.005-1.123 1.005h-3.663c-.62 0-1.122-.39-1.122-1.006 0-.622.5-1.006 1.122-1.006z"/><linearGradient id="a" gradientUnits="userSpaceOnUse" x1="24.85" y1="53.355" x2="24.85" y2="52.348" gradientTransform="matrix(27.28 0 0 16.564 -654.421 -855.826)"><stop offset="0" stop-color="#888"/><stop offset="1" stop-color="#BEBEBE"/></linearGradient><path fill="url(#a)" d="M31.43 14.198c-.626 0-1.224.102-1.788.284-1.523-1.94-3.88-3.19-6.533-3.19-2.525 0-4.786 1.134-6.31 2.917-.07-.003-.138-.01-.21-.01-3.794 0-6.87 2.92-6.87 6.528 0 3.607 3.076 6.53 6.87 6.53.826 0 1.614-.145 2.347-.398 1.228.717 2.648 1.133 4.172 1.133 2.39 0 4.54-1.02 6.06-2.64.694.298 1.458.462 2.262.462 3.2 0 5.79-2.6 5.79-5.807-.003-3.212-2.593-5.81-5.792-5.81z"/><linearGradient id="b" gradientUnits="userSpaceOnUse" x1="19.105" y1="39.754" x2="19.105" y2="38.754" gradientTransform="matrix(38 0 0 23.047 -707 -876.247)"><stop offset="0" stop-color="#888"/><stop offset="1" stop-color="#BEBEBE"/></linearGradient><path fill="url(#b)" d="M30 20.952c-.863 0-1.69.14-2.47.394-2.106-2.678-5.364-4.402-9.03-4.402-3.49 0-6.61 1.564-8.718 4.022-.097-.002-.19-.014-.288-.014C4.25 20.952 0 24.988 0 29.965c0 4.98 4.25 9.014 9.494 9.014 1.14 0 2.228-.202 3.24-.553 1.698.99 3.663 1.564 5.766 1.564 3.307 0 6.275-1.404 8.374-3.64.96.406 2.017.634 3.126.634 4.42 0 8-3.59 8-8.018 0-4.426-3.58-8.014-8-8.014z"/><path opacity=".2" fill="#FFC600" enable-background="new" d="M27.72 8.862c-.437.438-1.146.438-1.584 0s-.438-1.147 0-1.585l2.59-2.59c.44-.44 1.15-.44 1.586 0 .438.437.44 1.146 0 1.584l-2.59 2.592zM19 24.05c-4.44 0-8.05-3.613-8.05-8.05 0-4.438 3.61-8.05 8.05-8.05 4.437 0 8.05 3.612 8.05 8.05 0 4.437-3.612 8.05-8.05 8.05zM10.276 8.862l-2.592-2.59c-.438-.44-.438-1.148 0-1.586s1.148-.438 1.586 0l2.592 2.59c.438.44.438 1.148 0 1.586-.437.438-1.148.438-1.585 0zm0 14.275c.44-.44 1.15-.438 1.587 0s.438 1.146 0 1.584l-2.59 2.594c-.44.438-1.15.438-1.586 0-.438-.438-.438-1.147 0-1.587l2.59-2.59zm17.444-.002l2.592 2.592c.44.438.44 1.146 0 1.584-.437.44-1.146.44-1.585 0l-2.59-2.59c-.44-.437-.44-1.147 0-1.585.438-.438 1.146-.438 1.584 0zM19.92 4.785c0 .62-.387 1.122-1.006 1.122-.62 0-1.005-.502-1.005-1.12V1.12c0-.62.387-1.122 1.005-1.122s1.006.502 1.006 1.122v3.664zM7.786 16.92H4.12c-.618 0-1.12-.39-1.12-1.006 0-.622.502-1.006 1.12-1.006h3.666c.62 0 1.12.384 1.12 1.006 0 .617-.5 1.005-1.12 1.005zm22.428-2.012h3.663c.62 0 1.123.384 1.123 1.006 0 .618-.502 1.005-1.123 1.005h-3.663c-.62 0-1.122-.39-1.122-1.006 0-.622.5-1.006 1.122-1.006z"/><path fill="#D3E6EB" d="M33.7 28.83l-2.002.43 1.37 1.535c.246.275.225.697-.05.945-.27.248-.69.227-.936-.05l-1.37-1.536-.634 1.967c-.112.353-.487.544-.836.43-.35-.114-.54-.49-.426-.843l.634-1.966-2.005.43c-.358.08-.71-.15-.787-.514-.076-.362.15-.717.51-.795l2.007-.427-1.37-1.537c-.247-.274-.227-.697.048-.944.27-.246.69-.224.936.05l1.37 1.537.635-1.968c.113-.354.486-.545.834-.43.35.114.54.49.425.844l-.633 1.966 2.004-.43c.36-.08.71.153.787.515.078.36-.15.717-.512.794zM23.248 30.062l-2.516 1.455 2.516 1.455c.45.26.602.836.344 1.286-.26.45-.834.604-1.285.345l-2.514-1.455v2.91c0 .52-.422.94-.94.94-.52 0-.94-.42-.94-.94v-2.91L15.4 34.603c-.45.263-1.026.105-1.285-.345-.26-.45-.106-1.026.344-1.286l2.513-1.455-2.514-1.455c-.453-.258-.606-.836-.345-1.285.26-.45.834-.604 1.284-.346l2.513 1.455v-2.907c-.002-.52.42-.943.94-.942.518 0 .94.42.94.942v2.907l2.514-1.454c.45-.26 1.025-.103 1.285.345.26.452.105 1.028-.344 1.287zM10.724 30.054l-2.003.426 1.372 1.525c.246.273.223.693-.05.94-.272.245-.69.224-.936-.05l-1.37-1.525-.634 1.952c-.113.35-.487.54-.836.428-.348-.114-.54-.488-.424-.838l.633-1.953-2.005.425c-.36.08-.71-.15-.788-.51-.075-.36.154-.713.51-.79L6.2 29.66l-1.37-1.527c-.246-.27-.225-.693.048-.938.272-.244.69-.223.936.05l1.372 1.524.633-1.952c.113-.352.487-.54.835-.428.35.113.54.487.426.838l-.633 1.953 2.004-.426c.357-.078.71.153.786.51.077.362-.15.715-.512.79z"/></svg>