<?xml version="1.0" encoding="UTF-8" standalone="no"?>
<svg
   xmlns:dc="http://purl.org/dc/elements/1.1/"
   xmlns:cc="http://creativecommons.org/ns#"
   xmlns:rdf="http://www.w3.org/1999/02/22-rdf-syntax-ns#"
   xmlns:svg="http://www.w3.org/2000/svg"
   xmlns="http://www.w3.org/2000/svg"
   xmlns:xlink="http://www.w3.org/1999/xlink"
   xmlns:sodipodi="http://sodipodi.sourceforge.net/DTD/sodipodi-0.dtd"
   xmlns:inkscape="http://www.inkscape.org/namespaces/inkscape"
   width="204"
   height="230"
   viewBox="0 0 204 230"
   version="1.1"
   id="svg24"
   sodipodi:docname="cover.svg"
   inkscape:version="0.92.3 (2405546, 2018-03-11)"
   inkscape:export-filename="/home/mirian/mounts/handy/Devel/meteoswiss/cover/cover.png"
   inkscape:export-xdpi="96"
   inkscape:export-ydpi="96">
  <metadata
     id="metadata30">
    <rdf:RDF>
      <cc:Work
         rdf:about="">
        <dc:format>image/svg+xml</dc:format>
        <dc:type
           rdf:resource="http://purl.org/dc/dcmitype/StillImage" />
        <dc:title></dc:title>
      </cc:Work>
    </rdf:RDF>
  </metadata>
  <defs
     id="defs28">
    <linearGradient
       inkscape:collect="always"
       id="linearGradient876">
      <stop
         style="stop-color:#0087b6;stop-opacity:1"
         offset="0"
         id="stop872" />
      <stop
         style="stop-color:#6a87df;stop-opacity:0"
         offset="1"
         id="stop874" />
    </linearGradient>
    <linearGradient
       inkscape:collect="always"
       xlink:href="#linearGradient876"
       id="linearGradient878"
       x1="85.899345"
       y1="85.899345"
       x2="-15.250454"
       y2="-15.415517"
       gradientUnits="userSpaceOnUse"
       gradientTransform="matrix(3.1236387,0,0,3.1236411,-255.93562,188.64103)" />
  </defs>
  <sodipodi:namedview
     pagecolor="#ffffff"
     bordercolor="#666666"
     borderopacity="1"
     objecttolerance="10"
     gridtolerance="10"
     guidetolerance="10"
     inkscape:pageopacity="0"
     inkscape:pageshadow="2"
     inkscape:window-width="1600"
     inkscape:window-height="835"
     id="namedview26"
     showgrid="false"
     inkscape:zoom="1.3869565"
     inkscape:cx="105.12053"
     inkscape:cy="94.746238"
     inkscape:window-x="0"
     inkscape:window-y="0"
     inkscape:window-maximized="1"
     inkscape:current-layer="svg24"
     showguides="true"
     inkscape:guide-bbox="true" />
  <linearGradient
     id="a"
     gradientUnits="userSpaceOnUse"
     x1="39.022999"
     y1="-32.506001"
     x2="39.022999"
     y2="-31.497999"
     gradientTransform="matrix(156.87108,0,0,-95.2498,-5945.1784,-2892.2841)">
    <stop
       offset="0"
       stop-color="#CBCBCB"
       id="stop4" />
    <stop
       offset=".75"
       stop-color="#D8D8D8"
       id="stop6" />
    <stop
       offset="1"
       stop-color="#E1E1E1"
       id="stop8" />
  </linearGradient>
  <linearGradient
     id="b"
     gradientUnits="userSpaceOnUse"
     x1="578"
     y1="844.99103"
     x2="578"
     y2="821.94397"
     gradientTransform="matrix(5.7504062,0,0,5.7504105,-3242.2172,-4585.872)">
    <stop
       offset="0"
       stop-color="#CBCBCB"
       id="stop13" />
    <stop
       offset=".485"
       stop-color="#D8D8D8"
       id="stop15" />
    <stop
       offset="1"
       stop-color="#E1E1E1"
       id="stop17" />
  </linearGradient>
  <path
     sodipodi:nodetypes="ccc"
     inkscape:connector-curvature="0"
     id="path880"
     d="M 22.467615,368.26689 C 22.584725,568.15111 22.350495,567.9169 222.23458,568.03399 222.11738,368.14977 222.35179,368.384 22.467615,368.26689 Z"
     style="fill:#9be5ff;fill-opacity:1;fill-rule:evenodd;stroke:#ffffff;stroke-width:0.23283228;stroke-linecap:butt;stroke-linejoin:miter;stroke-miterlimit:4;stroke-dasharray:none;stroke-opacity:1" />
  <path
     d="m 154.66274,94.168575 c -2.51293,2.51868 -6.58997,2.51868 -9.10864,0 -2.51868,-2.518679 -2.51868,-6.59572 0,-9.120151 l 14.89355,-14.893563 c 2.53018,-2.51868 6.61296,-2.51868 9.12014,0 2.53018,2.51868 2.53018,6.595721 0,9.114401 L 154.67424,94.174326 Z M 104.5192,181.51731 c -25.531807,0 -46.290773,-20.78198 -46.290773,-46.3023 0,-25.52033 20.758966,-46.290809 46.290773,-46.290809 25.51455,0 46.29077,20.770479 46.29077,46.290809 0,25.52032 -20.77047,46.2908 -46.29077,46.2908 z M 54.352653,94.157075 39.4476,79.263511 c -2.518678,-2.53018 -2.518678,-6.601471 0,-9.120151 2.518678,-2.518679 6.601466,-2.518679 9.120144,0 l 14.905053,14.893564 c 2.518678,2.518679 2.518678,6.59572 0,9.120151 -2.512927,2.518679 -6.601466,2.518679 -9.114394,0 z m 0,82.092855 c 2.530179,-2.53018 6.612967,-2.51867 9.125895,0 2.512927,2.51868 2.518677,6.58998 0,9.10866 L 48.584995,200.2694 c -2.530178,2.51868 -6.612967,2.51868 -9.120144,0 -2.518678,-2.51868 -2.518678,-6.58997 0,-9.1259 l 14.893552,-14.89357 z m 100.310087,-0.0115 14.90505,14.90507 c 2.53018,2.51868 2.53018,6.58997 0,9.10865 -2.51293,2.51868 -6.58996,2.51868 -9.11439,0 l -14.89355,-14.89356 c -2.53018,-2.51868 -2.53018,-6.60148 0,-9.12016 2.51867,-2.51868 6.58996,-2.51868 9.10864,0 z M 109.80957,70.729902 c 0,3.565255 -2.22541,6.44046 -5.78491,6.44046 -3.56525,0 -5.779157,-2.875205 -5.779157,-6.44046 V 49.660398 c 0,-3.565254 2.225407,-6.45196 5.779157,-6.45196 3.55375,0 5.78491,2.886706 5.78491,6.45196 z M 40.034141,140.50538 H 18.953152 c -3.553751,0 -6.440455,-2.23116 -6.440455,-5.78491 0,-3.57676 2.886704,-5.78491 6.440455,-5.78491 h 21.080989 c 3.565252,0 6.440455,2.20815 6.440455,5.78491 0,3.55375 -2.875203,5.77916 -6.440455,5.77916 z m 58.194111,59.19473 c 0,-3.56526 2.231158,-6.45771 5.784908,-6.44046 3.56525,0 5.78491,2.8752 5.78491,6.44046 v 21.07525 c 0,3.54226 -2.22541,6.44046 -5.78491,6.44046 -3.56525,0 -5.779157,-2.8982 -5.779157,-6.44046 v -21.081 z m 70.775998,-70.76455 h 21.06374 c 3.56525,0 6.45771,2.20815 6.45771,5.78491 0,3.55375 -2.88671,5.77916 -6.45771,5.77916 h -21.06374 c -3.56525,0 -6.45195,-2.24266 -6.45195,-5.78491 0,-3.57676 2.8752,-5.78491 6.45195,-5.78491 z"
     id="path2"
     inkscape:connector-curvature="0"
     style="fill:#d8d8d8;stroke-width:5.75040817;fill-opacity:1" />
  <path
     d="m 222,124.85277 c -3.59976,0 -7.0385,0.58654 -10.28173,1.63311 -8.75787,-11.15579 -22.31158,-18.34381 -37.56165,-18.34381 -14.51403,0 -27.5157,6.52097 -36.28507,16.77395 -0.40253,-0.0173 -0.7878,-0.0575 -1.19608,-0.0575 -21.82279,0 -39.505293,16.79119 -39.505293,37.53868 0,20.74173 17.682503,37.55018 39.505293,37.55018 4.74408,0 9.28115,-0.83381 13.4962,-2.28292 7.05,4.1288 15.22133,6.52097 23.9792,6.52097 13.74347,0 26.10684,-5.86542 34.85896,-15.18108 3.98503,1.71362 8.37834,2.65669 12.99592,2.65669 18.4128,0 33.29485,-14.95107 33.29485,-33.39839 -0.0172,-18.47032 -14.91081,-33.40988 -33.30636,-33.40988 z"
     id="path11"
     inkscape:connector-curvature="0"
     style="fill:url(#a);stroke-width:5.75040817" />
  <path
     style="fill:url(#linearGradient878);fill-opacity:1;fill-rule:evenodd;stroke:#736eff;stroke-width:0.31236398;stroke-linecap:butt;stroke-linejoin:miter;stroke-miterlimit:4;stroke-dasharray:none;stroke-opacity:1"
     d="m -255.62122,188.95543 c 0.15712,268.16142 -0.15712,267.8472 268.004098,268.00429 -0.15723,-268.16141 0.15725,-267.84716 -268.004098,-268.00429 z"
     id="path860"
     inkscape:connector-curvature="0"
     sodipodi:nodetypes="ccc" />
  <path
     d="m 144.77204,163.69104 c -4.9626,0 -9.71819,0.80506 -14.2035,2.26566 -12.11036,-15.3996 -30.845182,-25.31331 -51.926171,-25.31331 -20.068918,0 -38.010185,8.99365 -50.132042,23.12815 -0.557789,-0.0115 -1.092577,-0.0805 -1.656117,-0.0805 -30.1551296,0 -54.594356,23.20866 -54.594356,51.82845 0,28.63704 24.4392264,51.8342 54.594356,51.8342 6.555464,0 12.811905,-1.16158 18.631317,-3.17998 9.764189,5.69291 21.063737,8.99364 33.156842,8.99364 19.016593,0 36.083801,-8.07357 48.153901,-20.93149 5.52039,2.32892 11.59857,3.64576 17.97577,3.64576 25.4168,0 46.00325,-20.64397 46.00325,-46.11829 0,-25.43982 -20.58645,-46.07229 -46.00325,-46.07229 z"
     id="path20"
     inkscape:connector-curvature="0"
     style="fill:url(#b);stroke-width:5.75040817" />
  <path
     d="m 154.66274,94.168575 c -2.51293,2.51868 -6.58997,2.51868 -9.10864,0 -2.51868,-2.518679 -2.51868,-6.59572 0,-9.120151 l 14.89355,-14.893563 c 2.53018,-2.51868 6.61296,-2.51868 9.12014,0 2.53018,2.51868 2.53018,6.595721 0,9.114401 L 154.67424,94.174326 Z M 104.5192,181.51731 c -25.531807,0 -46.290773,-20.78198 -46.290773,-46.3023 0,-25.52033 20.758966,-46.290809 46.290773,-46.290809 25.51455,0 46.29077,20.770479 46.29077,46.290809 0,25.52032 -20.77047,46.2908 -46.29077,46.2908 z M 54.352653,94.157075 39.4476,79.263511 c -2.518678,-2.53018 -2.518678,-6.601471 0,-9.120151 2.518678,-2.518679 6.601466,-2.518679 9.120144,0 l 14.905053,14.893564 c 2.518678,2.518679 2.518678,6.59572 0,9.120151 -2.512927,2.518679 -6.601466,2.518679 -9.114394,0 z m 0,82.092855 c 2.530179,-2.53018 6.612967,-2.51867 9.125895,0 2.512927,2.51868 2.518677,6.58998 0,9.10866 L 48.584995,200.2694 c -2.530178,2.51868 -6.612967,2.51868 -9.120144,0 -2.518678,-2.51868 -2.518678,-6.58997 0,-9.1259 l 14.893552,-14.89357 z m 100.310087,-0.0115 14.90505,14.90507 c 2.53018,2.51868 2.53018,6.58997 0,9.10865 -2.51293,2.51868 -6.58996,2.51868 -9.11439,0 l -14.89355,-14.89356 c -2.53018,-2.51868 -2.53018,-6.60148 0,-9.12016 2.51867,-2.51868 6.58996,-2.51868 9.10864,0 z M 109.80957,70.729902 c 0,3.565255 -2.22541,6.44046 -5.78491,6.44046 -3.56525,0 -5.779157,-2.875205 -5.779157,-6.44046 V 49.660398 c 0,-3.565254 2.225407,-6.45196 5.779157,-6.45196 3.55375,0 5.78491,2.886706 5.78491,6.45196 z M 40.034141,140.50538 H 18.953152 c -3.553751,0 -6.440455,-2.23116 -6.440455,-5.78491 0,-3.57676 2.886704,-5.78491 6.440455,-5.78491 h 21.080989 c 3.565252,0 6.440455,2.20815 6.440455,5.78491 0,3.55375 -2.875203,5.77916 -6.440455,5.77916 z m 58.194111,59.19473 c 0,-3.56526 2.231158,-6.45771 5.784908,-6.44046 3.56525,0 5.78491,2.8752 5.78491,6.44046 v 21.07525 c 0,3.54226 -2.22541,6.44046 -5.78491,6.44046 -3.56525,0 -5.779157,-2.8982 -5.779157,-6.44046 v -21.081 z m 70.775998,-70.76455 h 21.06374 c 3.56525,0 6.45771,2.20815 6.45771,5.78491 0,3.55375 -2.88671,5.77916 -6.45771,5.77916 h -21.06374 c -3.56525,0 -6.45195,-2.24266 -6.45195,-5.78491 0,-3.57676 2.8752,-5.78491 6.45195,-5.78491 z"
     id="path22"
     inkscape:connector-curvature="0"
     style="opacity:0.2;fill:#bfbfbf;stroke-width:5.75040817;enable-background:new;fill-opacity:1" />
</svg>
