<?xml version="1.0" encoding="UTF-8" standalone="no"?>
<svg
   xmlns:dc="http://purl.org/dc/elements/1.1/"
   xmlns:cc="http://creativecommons.org/ns#"
   xmlns:rdf="http://www.w3.org/1999/02/22-rdf-syntax-ns#"
   xmlns:svg="http://www.w3.org/2000/svg"
   xmlns="http://www.w3.org/2000/svg"
   xmlns:xlink="http://www.w3.org/1999/xlink"
   xmlns:sodipodi="http://sodipodi.sourceforge.net/DTD/sodipodi-0.dtd"
   xmlns:inkscape="http://www.inkscape.org/namespaces/inkscape"
   width="86"
   height="86"
   viewBox="0 0 86 86"
   version="1.1"
   id="svg24"
   sodipodi:docname="harbour-meteoswiss.svg"
   inkscape:version="0.92.3 (unknown)"
   inkscape:export-filename="/home/mirian/src/Sailfish/harbour-meteoswiss/icons/108x108/harbour-meteoswiss.png"
   inkscape:export-xdpi="120.56"
   inkscape:export-ydpi="120.56">
  <metadata
     id="metadata30">
    <rdf:RDF>
      <cc:Work
         rdf:about="">
        <dc:format>image/svg+xml</dc:format>
        <dc:type
           rdf:resource="http://purl.org/dc/dcmitype/StillImage" />
        <dc:title />
      </cc:Work>
    </rdf:RDF>
  </metadata>
  <defs
     id="defs28">
    <inkscape:path-effect
       effect="bspline"
       id="path-effect872"
       is_visible="true"
       weight="33.333333"
       steps="2"
       helper_size="0"
       apply_no_weight="true"
       apply_with_weight="true"
       only_selected="false" />
    <inkscape:path-effect
       effect="bspline"
       id="path-effect867"
       is_visible="true"
       weight="33.333333"
       steps="2"
       helper_size="0"
       apply_no_weight="true"
       apply_with_weight="true"
       only_selected="false" />
    <inkscape:path-effect
       effect="bspline"
       id="path-effect863"
       is_visible="true"
       weight="33.333333"
       steps="2"
       helper_size="0"
       apply_no_weight="true"
       apply_with_weight="true"
       only_selected="false" />
    <inkscape:path-effect
       effect="bspline"
       id="path-effect851"
       is_visible="true"
       weight="33.333333"
       steps="2"
       helper_size="0"
       apply_no_weight="true"
       apply_with_weight="true"
       only_selected="false" />
    <inkscape:path-effect
       effect="bspline"
       id="path-effect843"
       is_visible="true"
       weight="33.333333"
       steps="2"
       helper_size="0"
       apply_no_weight="true"
       apply_with_weight="true"
       only_selected="false" />
    <linearGradient
       inkscape:collect="always"
       id="linearGradient876">
      <stop
         style="stop-color:#cd0000;stop-opacity:1"
         offset="0"
         id="stop872" />
      <stop
         style="stop-color:#ff3e3e;stop-opacity:0.11340206"
         offset="1"
         id="stop874" />
    </linearGradient>
    <linearGradient
       inkscape:collect="always"
       xlink:href="#linearGradient876"
       id="linearGradient915"
       x1="0"
       y1="0"
       x2="86"
       y2="86"
       gradientUnits="userSpaceOnUse"
       gradientTransform="matrix(-0.98813855,0,0,-0.98813855,85.489958,85.48996)" />
    <filter
       inkscape:collect="always"
       style="color-interpolation-filters:sRGB"
       id="filter941"
       x="-0.006"
       width="1.012"
       y="-0.006"
       height="1.012">
      <feGaussianBlur
         inkscape:collect="always"
         stdDeviation="0.21441907"
         id="feGaussianBlur943" />
    </filter>
  </defs>
  <sodipodi:namedview
     pagecolor="#ffffff"
     bordercolor="#666666"
     borderopacity="1"
     objecttolerance="10"
     gridtolerance="10"
     guidetolerance="10"
     inkscape:pageopacity="0"
     inkscape:pageshadow="2"
     inkscape:window-width="1600"
     inkscape:window-height="835"
     id="namedview26"
     showgrid="false"
     inkscape:zoom="7.4186047"
     inkscape:cx="43"
     inkscape:cy="43"
     inkscape:window-x="0"
     inkscape:window-y="0"
     inkscape:window-maximized="1"
     inkscape:current-layer="layer3"
     showguides="true"
     inkscape:guide-bbox="true" />
  <linearGradient
     id="a"
     gradientUnits="userSpaceOnUse"
     x1="39.022999"
     y1="-32.506001"
     x2="39.022999"
     y2="-31.497999"
     gradientTransform="matrix(34.185115,0,0,-20.756681,-1277.3593,-621.75386)">
    <stop
       offset="0"
       stop-color="#CBCBCB"
       id="stop4"
       style="stop-color:#dddddd;stop-opacity:1" />
    <stop
       offset=".75"
       stop-color="#D8D8D8"
       id="stop6"
       style="stop-color:#f0f0f0;stop-opacity:1" />
    <stop
       offset="1"
       stop-color="#E1E1E1"
       id="stop8"
       style="stop-color:#f7f7f7;stop-opacity:1" />
  </linearGradient>
  <linearGradient
     id="b"
     gradientUnits="userSpaceOnUse"
     x1="578"
     y1="844.99103"
     x2="578"
     y2="821.94397"
     gradientTransform="matrix(1.25312,0,0,1.25312,-688.33401,-990.81778)">
    <stop
       offset="0"
       stop-color="#CBCBCB"
       id="stop13"
       style="stop-color:#eaeaea;stop-opacity:1" />
    <stop
       offset=".485"
       stop-color="#D8D8D8"
       id="stop15"
       style="stop-color:#f3f3f3;stop-opacity:1" />
    <stop
       offset="1"
       stop-color="#E1E1E1"
       id="stop17"
       style="stop-color:#fcfcfc;stop-opacity:1" />
  </linearGradient>
  <g
     inkscape:groupmode="layer"
     id="layer1"
     inkscape:label="Jolla"
     sodipodi:insensitive="true"
     style="display:none">
    <image
       sodipodi:absref="/home/mirian/src/Sailfish/harbour-meteoswiss/icons/172x172/harbour-meteoswiss.png"
       y="-7.1054274e-15"
       x="-86"
       id="image838"
       xlink:href="file:///home/mirian/src/Sailfish/harbour-meteoswiss/icons/172x172/harbour-meteoswiss.png"
       preserveAspectRatio="none"
       height="86"
       width="86"
       transform="scale(-1,1)" />
  </g>
  <g
     inkscape:groupmode="layer"
     id="layer2"
     inkscape:label="empty"
     sodipodi:insensitive="true"
     style="display:none">
    <path
       style="opacity:1;fill:#990001;fill-opacity:1;fill-rule:nonzero;stroke:none;stroke-width:0.23332919;stroke-linecap:round;stroke-linejoin:bevel;stroke-miterlimit:4;stroke-dasharray:none;stroke-dashoffset:0;stroke-opacity:1;paint-order:normal"
       d="m 43,0 c 23.748244,0 43,19.251759 43,42.999999 v 43 H 43 c -23.748244,0 -43,-19.25176 -43,-43 V 0 Z"
       id="path853"
       inkscape:connector-curvature="0" />
  </g>
  <g
     inkscape:groupmode="layer"
     id="layer3"
     inkscape:label="meteo"
     style="display:inline"
     sodipodi:insensitive="true">
    <path
       inkscape:connector-curvature="0"
       id="path904"
       d="m 43.398421,-0.28223153 c 23.684077,0 42.883815,19.19974053 42.883815,42.88381353 V 85.485397 H 43.398421 c -23.684077,0 -42.88381522,-19.199742 -42.88381522,-42.883815 V -0.28223153 Z"
       style="opacity:1;fill:#ff2323;fill-opacity:1;fill-rule:nonzero;stroke:#ffffff;stroke-width:0.23237044;stroke-linecap:round;stroke-linejoin:bevel;stroke-miterlimit:4;stroke-dasharray:none;stroke-dashoffset:0;stroke-opacity:1;paint-order:normal;filter:url(#filter941)"
       transform="matrix(0.9908195,0,0,0.9908195,0,0.78952337)" />
    <path
       style="opacity:1;fill:url(#linearGradient915);fill-opacity:1;fill-rule:nonzero;stroke:none;stroke-width:0.23086093;stroke-linecap:round;stroke-linejoin:bevel;stroke-miterlimit:4;stroke-dasharray:none;stroke-dashoffset:0;stroke-opacity:1;paint-order:normal"
       d="m 43.000002,85.489959 c -23.466555,0 -42.48995835,-19.023407 -42.48995835,-42.489958 V 0.51004448 H 43.000002 c 23.466555,0 42.489957,19.02340552 42.489957,42.48995652 v 42.489958 z"
       id="path907"
       inkscape:connector-curvature="0" />
    <path
       d="m 51.909058,29.049016 c -0.547613,0.548867 -1.436075,0.548867 -1.984942,0 -0.548867,-0.548867 -0.548867,-1.437329 0,-1.987449 l 3.245581,-3.245581 c 0.551373,-0.548866 1.441088,-0.548866 1.987449,0 0.551372,0.548867 0.551372,1.437329 0,1.986196 l -3.245581,3.248087 z M 40.981852,48.083909 c -5.563853,0 -10.087617,-4.528776 -10.087617,-10.090122 0,-5.561347 4.523764,-10.087617 10.087617,-10.087617 5.560093,0 10.087615,4.52627 10.087615,10.087617 0,5.561346 -4.526269,10.087615 -10.087615,10.087615 z m -10.93222,-19.0374 -3.248087,-3.24558 c -0.548866,-0.551373 -0.548866,-1.438582 0,-1.987449 0.548867,-0.548866 1.438582,-0.548866 1.987449,0 l 3.248087,3.245581 c 0.548867,0.548867 0.548867,1.437329 0,1.987448 -0.547614,0.548867 -1.438582,0.548867 -1.986195,0 z m 0,17.889542 c 0.551373,-0.551373 1.441089,-0.548867 1.988702,0 0.547614,0.548867 0.548866,1.436076 0,1.984942 l -3.245581,3.24934 c -0.551372,0.548867 -1.441088,0.548867 -1.987448,0 -0.548867,-0.548866 -0.548867,-1.436075 0,-1.988702 l 3.245581,-3.24558 z m 21.859426,-0.0025 3.248088,3.248086 c 0.551372,0.548868 0.551372,1.436076 0,1.984943 -0.547614,0.548866 -1.436076,0.548866 -1.986196,0 l -3.245581,-3.245581 c -0.551372,-0.548867 -0.551372,-1.438582 0,-1.987448 0.548867,-0.548867 1.436076,-0.548867 1.984943,0 z M 42.134722,23.941298 c 0,0.776935 -0.484958,1.403495 -1.260639,1.403495 -0.776934,0 -1.259386,-0.62656 -1.259386,-1.403495 v -4.591432 c 0,-0.776934 0.484958,-1.406 1.259386,-1.406 0.774429,0 1.260639,0.629066 1.260639,1.406 z M 26.929363,39.146657 h -4.593937 c -0.774429,0 -1.403495,-0.48621 -1.403495,-1.260639 0,-0.779441 0.629066,-1.260638 1.403495,-1.260638 h 4.593937 c 0.776935,0 1.403495,0.481197 1.403495,1.260638 0,0.774429 -0.62656,1.259385 -1.403495,1.259385 z m 12.681575,12.899618 c 0,-0.776935 0.486211,-1.407254 1.260639,-1.403495 0.776935,0 1.260639,0.62656 1.260639,1.403495 v 4.592685 c 0,0.771921 -0.484957,1.403494 -1.260639,1.403494 -0.776935,0 -1.259385,-0.631573 -1.259385,-1.403494 V 52.045021 Z M 55.03434,36.62538 h 4.590178 c 0.776934,0 1.407254,0.481197 1.407254,1.260638 0,0.774429 -0.629066,1.259385 -1.407254,1.259385 H 55.03434 c -0.776935,0 -1.406001,-0.488716 -1.406001,-1.260638 0,-0.77944 0.62656,-1.260639 1.406001,-1.260639 z"
       id="path2"
       inkscape:connector-curvature="0"
       style="fill:#ffc600;stroke-width:1.25312006" />
    <path
       d="m 66.583094,35.735665 c -0.784454,0 -1.533819,0.127817 -2.240579,0.355885 -1.908502,-2.431053 -4.862106,-3.997452 -8.18538,-3.997452 -3.162875,0 -5.996179,1.421038 -7.907187,3.655351 -0.08772,-0.0038 -0.171677,-0.01253 -0.260649,-0.01253 -4.755591,0 -8.608934,3.659111 -8.608934,8.180368 0,4.520004 3.853343,8.182873 8.608934,8.182873 1.033824,0 2.022536,-0.181701 2.941072,-0.497488 1.536325,0.89974 3.317009,1.421038 5.225511,1.421038 2.994957,0 5.689165,-1.278182 7.596414,-3.308236 0.868412,0.373429 1.825796,0.578941 2.832051,0.578941 4.01249,0 7.255565,-3.258112 7.255565,-7.278122 -0.0038,-4.02502 -3.249341,-7.280626 -7.258071,-7.280626 z"
       id="path11"
       inkscape:connector-curvature="0"
       style="fill:url(#a);stroke-width:1.25312006" />
    <path
       d="m 49.753692,44.199237 c -1.081443,0 -2.117773,0.175436 -3.095206,0.493729 -2.639072,-3.355855 -6.721737,-5.516234 -11.315674,-5.516234 -4.373389,0 -8.283124,1.95988 -10.924701,5.040048 -0.121552,-0.0025 -0.238093,-0.01755 -0.360899,-0.01755 -6.571361,0 -11.897121,5.057592 -11.897121,11.294371 0,6.240538 5.32576,11.295624 11.897121,11.295624 1.428557,0 2.791952,-0.253131 4.060109,-0.692975 2.127798,1.240589 4.590179,1.959879 7.225491,1.959879 4.144068,0 7.863328,-1.75938 10.493626,-4.561356 1.202996,0.507513 2.527543,0.794477 3.917254,0.794477 5.538791,0 10.02496,-4.498701 10.02496,-10.050022 0,-5.543803 -4.486169,-10.039998 -10.02496,-10.039998 z"
       id="path20"
       inkscape:connector-curvature="0"
       style="fill:url(#b);stroke-width:1.25312006" />
    <path
       d="m 51.909058,29.049016 c -0.547613,0.548867 -1.436075,0.548867 -1.984942,0 -0.548867,-0.548867 -0.548867,-1.437329 0,-1.987449 l 3.245581,-3.245581 c 0.551373,-0.548866 1.441088,-0.548866 1.987449,0 0.551372,0.548867 0.551372,1.437329 0,1.986196 l -3.245581,3.248087 z M 40.981852,48.083909 c -5.563853,0 -10.087617,-4.528776 -10.087617,-10.090122 0,-5.561347 4.523764,-10.087617 10.087617,-10.087617 5.560093,0 10.087615,4.52627 10.087615,10.087617 0,5.561346 -4.526269,10.087615 -10.087615,10.087615 z m -10.93222,-19.0374 -3.248087,-3.24558 c -0.548866,-0.551373 -0.548866,-1.438582 0,-1.987449 0.548867,-0.548866 1.438582,-0.548866 1.987449,0 l 3.248087,3.245581 c 0.548867,0.548867 0.548867,1.437329 0,1.987448 -0.547614,0.548867 -1.438582,0.548867 -1.986195,0 z m 0,17.889542 c 0.551373,-0.551373 1.441089,-0.548867 1.988702,0 0.547614,0.548867 0.548866,1.436076 0,1.984942 l -3.245581,3.24934 c -0.551372,0.548867 -1.441088,0.548867 -1.987448,0 -0.548867,-0.548866 -0.548867,-1.436075 0,-1.988702 l 3.245581,-3.24558 z m 21.859426,-0.0025 3.248088,3.248086 c 0.551372,0.548868 0.551372,1.436076 0,1.984943 -0.547614,0.548866 -1.436076,0.548866 -1.986196,0 l -3.245581,-3.245581 c -0.551372,-0.548867 -0.551372,-1.438582 0,-1.987448 0.548867,-0.548867 1.436076,-0.548867 1.984943,0 z M 42.134722,23.941298 c 0,0.776935 -0.484958,1.403495 -1.260639,1.403495 -0.776934,0 -1.259386,-0.62656 -1.259386,-1.403495 v -4.591432 c 0,-0.776934 0.484958,-1.406 1.259386,-1.406 0.774429,0 1.260639,0.629066 1.260639,1.406 z M 26.929363,39.146657 h -4.593937 c -0.774429,0 -1.403495,-0.48621 -1.403495,-1.260639 0,-0.779441 0.629066,-1.260638 1.403495,-1.260638 h 4.593937 c 0.776935,0 1.403495,0.481197 1.403495,1.260638 0,0.774429 -0.62656,1.259385 -1.403495,1.259385 z m 12.681575,12.899618 c 0,-0.776935 0.486211,-1.407254 1.260639,-1.403495 0.776935,0 1.260639,0.62656 1.260639,1.403495 v 4.592685 c 0,0.771921 -0.484957,1.403494 -1.260639,1.403494 -0.776935,0 -1.259385,-0.631573 -1.259385,-1.403494 V 52.045021 Z M 55.03434,36.62538 h 4.590178 c 0.776934,0 1.407254,0.481197 1.407254,1.260638 0,0.774429 -0.629066,1.259385 -1.407254,1.259385 H 55.03434 c -0.776935,0 -1.406001,-0.488716 -1.406001,-1.260638 0,-0.77944 0.62656,-1.260639 1.406001,-1.260639 z"
       id="path22"
       inkscape:connector-curvature="0"
       style="opacity:0.2;fill:#ffc600;stroke-width:1.25312006;enable-background:new" />
  </g>
</svg>
